<svg width="262" height="272" viewBox="0 0 262 272" fill="none" xmlns="http://www.w3.org/2000/svg">
<path opacity="0.2" d="M162.954 194.633C162.954 194.633 83.6631 229.78 83.6631 263.081H242.266C242.255 229.78 162.954 194.633 162.954 194.633Z" fill="#407BFF"/>
<path opacity="0.2" d="M162.954 236.569C162.954 236.569 89.7383 250.185 89.7383 263.081H236.171C236.171 250.185 162.954 236.569 162.954 236.569Z" fill="#407BFF"/>
<path opacity="0.3" d="M172.578 204.337C187.467 215.329 216.404 239.687 216.404 263.081H196.563C196.563 239.687 180.724 215.329 172.578 204.337Z" fill="white"/>
<path opacity="0.2" d="M162.954 194.633C162.954 194.633 83.6631 159.485 83.6631 126.184H242.266C242.255 159.485 162.954 194.633 162.954 194.633Z" fill="#407BFF"/>
<path opacity="0.2" d="M162.954 191.425C162.954 191.425 122.473 176.844 122.473 162.992H203.446C203.446 176.82 162.954 191.425 162.954 191.425Z" fill="#407BFF"/>
<path opacity="0.3" d="M154.312 184.928C139.434 173.936 110.529 149.578 110.529 126.184H130.371C130.328 149.578 146.134 173.936 154.312 184.928Z" fill="white"/>
<path opacity="0.3" d="M172.578 184.928C187.467 173.936 215.681 146.759 216.404 126.184H211.118C208.636 151.271 184.36 174.292 172.578 184.928Z" fill="white"/>
<path d="M231.487 114.43H222.5V115.24H231.487V114.43Z" fill="#407BFF"/>
<path d="M262 125.56H260.921C260.918 122.825 259.47 120.203 256.895 118.268C254.321 116.333 250.829 115.244 247.186 115.24H237.702V114.43H247.186C251.114 114.436 254.879 115.611 257.655 117.697C260.432 119.784 261.994 122.611 262 125.56Z" fill="#407BFF"/>
<path d="M247.175 117.265H78.7328C72.631 117.265 67.6846 120.979 67.6846 125.56V126.807C67.6846 131.389 72.631 135.102 78.7328 135.102H247.175C253.277 135.102 258.224 131.389 258.224 126.807V125.56C258.224 120.979 253.277 117.265 247.175 117.265Z" fill="#407BFF"/>
<path d="M247.175 254.163H78.7328C72.631 254.163 67.6846 257.877 67.6846 262.458V263.705C67.6846 268.286 72.631 272 78.7328 272H247.175C253.277 272 258.224 268.286 258.224 263.705V262.458C258.224 257.877 253.277 254.163 247.175 254.163Z" fill="#407BFF"/>
<path d="M23.9118 181.502L16.5967 176.625L29.0691 162.247L36.3842 167.115L23.9118 181.502Z" fill="#FF8B7B"/>
<path d="M18.1072 173.531L27.4076 178.391C27.487 178.428 27.5558 178.477 27.6102 178.534C27.6646 178.591 27.7034 178.656 27.7244 178.725C27.7454 178.793 27.7483 178.864 27.7328 178.933C27.7174 179.003 27.6838 179.069 27.6342 179.128L22.9732 184.896C22.7048 185.186 22.2952 185.385 21.8329 185.45C21.3706 185.515 20.8927 185.441 20.5025 185.244C17.2657 183.519 16.0681 182.676 12.1947 180.327C8.36634 178.068 4.69325 175.665 1.18962 173.126C-1.68033 170.89 1.35146 168.727 2.87275 169.497C6.46559 171.328 12.7126 173.345 16.327 173.183C16.9557 173.145 17.5828 173.268 18.1072 173.531Z" fill="#263238"/>
<path opacity="0.2" d="M36.3736 167.124L29.0584 162.247L23.0596 169.173L30.5582 173.847L36.3736 167.124Z" fill="black"/>
<path d="M110.798 95.2968C110.798 95.2968 61.7067 92.7776 55.6215 105.268C41.7788 133.669 23.7715 163.794 23.7715 163.794L38.2399 171.66C38.2399 171.66 68.8276 136.544 78.1603 114.001C97.0416 117.443 131.179 120.384 142.173 110.906C151.56 102.806 144.536 95.2968 144.536 95.2968H110.798Z" fill="#263238"/>
<path opacity="0.3" d="M68.7526 117.371C67.609 120.838 65.8719 130.769 64.793 137.354C67.1774 133.887 69.4432 130.372 71.4823 126.937L68.7526 117.371Z" fill="black"/>
<path d="M37.3119 175.216L20.9014 165.56L24.2568 160.149L42.5986 170.672L37.3119 175.216Z" fill="#407BFF"/>
<path d="M14.1693 173.085C14.9301 173.458 15.7399 173.77 16.5861 174.017C16.6282 174.028 16.6736 174.03 16.717 174.022C16.7605 174.015 16.8003 173.998 16.8318 173.975C16.8633 173.951 16.8853 173.921 16.8953 173.889C16.9053 173.856 16.9028 173.822 16.8882 173.79C16.7479 173.515 15.5179 171.093 14.234 170.858C14.0867 170.833 13.9334 170.836 13.7881 170.867C13.6428 170.898 13.5104 170.956 13.4032 171.036C13.2227 171.143 13.0829 171.284 12.9977 171.445C12.9125 171.606 12.8849 171.78 12.9177 171.951C13.136 172.432 13.5813 172.835 14.1693 173.085ZM16.2516 173.531C14.5577 172.98 13.5003 172.373 13.3817 171.911C13.3631 171.798 13.3853 171.684 13.4461 171.58C13.5068 171.476 13.6039 171.386 13.7269 171.32C13.7768 171.279 13.8401 171.25 13.9103 171.234C13.9805 171.218 14.055 171.217 14.1261 171.23C14.8166 171.36 15.7121 172.567 16.2516 173.531Z" fill="#407BFF"/>
<path d="M16.5315 173.993C16.5668 174 16.6042 174 16.6394 173.993C16.6797 173.996 16.7204 173.992 16.7581 173.98C16.7957 173.969 16.829 173.951 16.8552 173.928C16.9307 173.863 18.7649 172.17 18.4952 171.125C18.4596 170.992 18.3838 170.866 18.2734 170.758C18.1631 170.65 18.0212 170.562 17.8586 170.501C17.6929 170.423 17.4976 170.388 17.3028 170.402C17.108 170.415 16.9242 170.475 16.7797 170.574C15.9597 171.149 15.9921 173.094 16.4776 173.896C16.4848 173.931 16.5033 173.964 16.5315 173.993ZM17.7291 170.89C17.8072 170.929 17.8741 170.979 17.926 171.037C17.9779 171.096 18.0137 171.162 18.0312 171.23C18.1931 171.846 17.3191 172.907 16.7473 173.491C16.4452 172.68 16.5423 171.239 17.071 170.866C17.1789 170.793 17.3299 170.72 17.6428 170.866L17.7291 170.89Z" fill="#407BFF"/>
<path d="M88.4102 189.999L78.9695 191.417L77.2217 172.437L86.8134 172.664L88.4102 189.999Z" fill="#FF8B7B"/>
<path d="M77.6861 188.825L88.4754 185.414C88.5637 185.382 88.6598 185.363 88.758 185.359C88.8562 185.354 88.9546 185.365 89.0472 185.39C89.1398 185.415 89.2248 185.454 89.2971 185.504C89.3694 185.554 89.4275 185.614 89.468 185.682L93.5895 191.903C93.7781 192.239 93.7831 192.618 93.6035 192.957C93.424 193.297 93.0741 193.57 92.6293 193.717C88.853 194.859 86.9757 195.256 82.2392 196.763C79.3261 197.687 71.4499 200.36 67.2421 201.145C63.0342 201.931 62.0848 198.764 63.7895 198.148C67.8247 196.69 74.514 192.243 76.3159 189.789C76.6228 189.365 77.1033 189.027 77.6861 188.825Z" fill="#263238"/>
<path d="M74.9988 191.158C75.8489 190.866 76.6554 190.507 77.4049 190.088C77.442 190.067 77.4707 190.038 77.4878 190.005C77.5049 189.972 77.5098 189.937 77.502 189.902C77.4893 189.868 77.4645 189.837 77.4303 189.813C77.3961 189.789 77.3537 189.772 77.3078 189.764C76.9193 189.699 73.4236 189.173 72.4418 189.886C72.3299 189.967 72.2482 190.069 72.2046 190.181C72.1611 190.293 72.1573 190.412 72.1936 190.526C72.2178 190.701 72.3034 190.868 72.4418 191.011C72.5801 191.153 72.7663 191.265 72.9812 191.336C73.6599 191.466 74.379 191.403 74.9988 191.158ZM76.6496 190.04C75.0852 190.85 73.8012 191.198 73.1646 191.012C73.0226 190.963 72.9012 190.886 72.8137 190.789C72.7262 190.691 72.6759 190.578 72.6683 190.461C72.6475 190.406 72.6465 190.348 72.6655 190.292C72.6844 190.237 72.7227 190.186 72.7762 190.145C73.3049 189.764 75.247 189.861 76.6496 190.04Z" fill="#407BFF"/>
<path d="M77.3516 190.113C77.3884 190.098 77.4213 190.079 77.4487 190.056C77.4667 190.03 77.4761 190 77.4761 189.971C77.4761 189.941 77.4667 189.912 77.4487 189.886C77.4487 189.797 76.4561 187.658 75.0967 187.261C74.9219 187.209 74.7331 187.188 74.5456 187.201C74.3582 187.214 74.1773 187.259 74.0178 187.334C73.8285 187.398 73.6739 187.508 73.5796 187.646C73.4854 187.785 73.4572 187.943 73.4999 188.096C73.7156 188.906 75.9922 189.999 77.1898 190.121C77.2431 190.134 77.3012 190.131 77.3516 190.113ZM74.4062 187.61C74.495 187.581 74.5903 187.567 74.6867 187.567C74.783 187.567 74.8784 187.581 74.9672 187.61C75.7764 187.844 76.5209 189.003 76.8877 189.7C75.8088 189.432 74.158 188.598 74.0178 188.031C74.0178 187.925 74.0177 187.788 74.309 187.658L74.4062 187.61Z" fill="#407BFF"/>
<path opacity="0.2" d="M86.8241 172.672L77.2217 172.437L78.1388 182.352L87.6981 182.223L86.8241 172.672Z" fill="black"/>
<path d="M134.642 95.2968C134.642 95.2968 64.5116 100.279 67.0363 116.131C70.7262 138.999 73.4236 179.039 73.4236 179.039L91.3014 179.566C91.3014 179.566 98.0124 144.361 94.0851 120.943C112.243 120.943 151.689 121.664 158.627 114.616C166.859 106.257 163.05 95.2968 163.05 95.2968H134.642Z" fill="#263238"/>
<path d="M93.2767 180.392L71.8168 179.59L71.0508 172.583L94.5822 173.798L93.2767 180.392Z" fill="#407BFF"/>
<path d="M119.074 48.8731C118.923 50.3231 118.75 51.6111 118.513 52.9639C118.275 54.3166 118.049 55.637 117.768 56.9736C117.25 59.6386 116.538 62.2875 115.74 64.9525C114.942 67.6176 113.96 70.2745 112.73 72.9558C111.481 75.7764 109.843 78.4913 107.842 81.0562C106.648 82.5652 105.197 83.9512 103.526 85.1794C103.084 85.4898 102.619 85.7819 102.135 86.0542C101.692 86.3296 101.25 86.5645 100.797 86.7994C99.9341 87.2563 99.0371 87.6755 98.1103 88.055C94.6888 89.4525 91.0698 90.5583 87.321 91.3519C85.5407 91.765 83.7497 92.0971 81.9263 92.3969C80.1029 92.6966 78.3658 92.9558 76.5317 93.1664C72.9612 93.605 69.3578 93.8755 65.7424 93.9764C64.851 94.0047 63.9762 93.7896 63.2799 93.371C62.5835 92.9523 62.1128 92.3583 61.9548 91.6991C61.7968 91.0399 61.9623 90.36 62.4206 89.7854C62.879 89.2107 63.599 88.7802 64.4476 88.5734L64.5879 88.5329C70.9149 87.0302 77.1218 85.256 83.1779 83.219C85.9625 82.2729 88.6275 81.1396 91.1404 79.8331C91.7122 79.5252 92.2193 79.2093 92.7372 78.8934C92.9745 78.7395 93.2227 78.5856 93.4277 78.4236C93.6189 78.2945 93.7991 78.1565 93.9672 78.0105C94.6835 77.3603 95.2988 76.651 95.8013 75.8962C97.1105 73.8999 98.1619 71.8139 98.941 69.667C99.815 67.3908 100.57 65.0173 101.196 62.6034C101.822 60.1895 102.383 57.7431 102.911 55.2644C103.44 52.7856 103.839 50.2583 104.206 47.9092V47.7715C104.476 46.351 105.467 45.0637 106.971 44.1785C108.475 43.2932 110.377 42.8783 112.278 43.0205C114.18 43.1627 115.935 43.8508 117.177 44.9414C118.42 46.0319 119.053 47.4405 118.944 48.8731H119.074Z" fill="#407BFF"/>
<path d="M66.0978 87.1154L60.7031 87.3665L65.0188 94.8189C65.0188 94.8189 74.3516 94.665 74.1574 91.2142L72.4742 89.5941C71.704 88.867 70.7377 88.2703 69.6388 87.8431C68.5399 87.416 67.3332 87.168 66.0978 87.1154Z" fill="#FF8B7B"/>
<path d="M54.791 87.9821L59.452 94.8351H65.0085L60.6928 87.3827L54.791 87.9821Z" fill="#FF8B7B"/>
<path d="M118.296 37.3867L128.73 35.7666L137.037 34.8675C138.225 34.7218 139.43 34.681 140.63 34.7459C143.818 34.963 146.843 35.9053 149.299 37.4468C151.755 38.9883 153.526 41.0557 154.376 43.3729C156.458 49.0432 158.336 56.0015 159.77 62.166C161.777 70.7281 162.813 83.5917 163.007 95.2887H113.581C112.503 74.106 106.504 60.4568 104.465 51.9918C103.85 49.4362 104.372 46.8 105.949 44.4888C107.526 42.1777 110.072 40.3198 113.193 39.2012L118.296 37.3867Z" fill="#407BFF"/>
<path d="M113.582 42.0445C113.701 45.5277 114.661 57.9457 119.635 65.0011C120.509 58.3912 130.964 38.2697 130.964 38.2697L113.582 42.0445Z" fill="#F5F5F5"/>
<path opacity="0.3" d="M160.904 67.9821C160.904 67.8525 160.904 67.731 160.839 67.5933L160.742 67.01C160.688 66.6941 160.634 66.3782 160.58 66.0785L160.418 65.2118L160.256 64.4017C160.256 64.1749 160.159 63.94 160.116 63.7213C160.008 63.2028 159.9 62.7006 159.781 62.2065C159.425 60.6917 159.048 59.1202 158.638 57.5406V57.411C158.228 55.7909 157.807 54.2275 157.354 52.6479V52.5426C157.17 51.8622 156.976 51.198 156.771 50.5256L156.545 49.7804L156.156 48.4924L155.833 47.488L155.768 47.2774C155.336 45.9489 154.894 44.6447 154.441 43.4134L146.942 40.4487C147.805 42.9355 148.625 45.6735 149.402 48.4762C148.505 48.8288 147.677 49.2732 146.942 49.7966C145.151 50.9955 145.216 53.5471 147.007 56.5686C151.965 65.2084 154.71 74.4722 155.099 83.8752C155.325 87.6905 155.466 91.5544 155.53 95.3049H163.083C162.867 86.0137 162.177 76.0016 160.904 67.9821Z" fill="black"/>
<path d="M124.846 21.7771L120.606 26.6374L114.844 33.2393C115.586 33.8064 116.189 34.4673 116.625 35.1915C117.704 36.8116 118.545 37.978 114.089 40.2543C113.14 40.7403 113.107 41.5098 113.323 42.3604C113.582 43.3972 114.402 44.4827 119.192 43.8428C123.822 43.1741 128.048 41.4149 131.255 38.8205C132.852 37.6135 132.485 36.7144 130.942 35.4669C126.583 31.9432 125.278 26.3134 124.846 21.7771Z" fill="#FF8B7B"/>
<path d="M114.661 43.9643L117.715 45.4062L122.678 43.8266C121.508 42.9399 119.999 42.3483 118.362 42.1336C116.935 42.4888 115.659 43.1203 114.661 43.9643Z" fill="#263238"/>
<path d="M118.308 42.1336C120.584 42.8383 121.728 44.426 122.764 46.2567C122.764 46.2567 133.672 40.0517 133.898 35.961C133.316 34.5677 130.586 34.8107 130.586 34.8107C130.586 34.8107 127.263 39.1364 118.308 42.1336Z" fill="white"/>
<path d="M118.308 42.1336C117.244 42.4567 116.34 43.0201 115.722 43.7457C115.103 44.4713 114.8 45.3233 114.855 46.1838C114.855 46.1838 110 41.9068 113.949 38.6747C115.02 38.2526 116.159 37.9342 117.337 37.7269C117.337 37.7269 116.15 39.509 118.308 42.1336Z" fill="white"/>
<path d="M118.674 44.7338H117.282C116.829 45.3171 116.203 52.9153 115.955 56.9574C116.622 59.3173 117.601 61.6212 118.879 63.8347C118.875 63.8616 118.875 63.8888 118.879 63.9157C118.955 64.0453 119.03 64.1668 119.116 64.2883C119.267 64.5313 119.418 64.7743 119.591 65.0012C120.089 62.4918 120.865 60.0181 121.911 57.6054C120.487 52.9234 118.674 44.7338 118.674 44.7338Z" fill="#263238"/>
<path opacity="0.2" d="M116.268 31.6111L119.807 26.9047C119.872 27.0181 119.958 27.1558 120.044 27.2854C120.354 27.8729 120.607 28.4766 120.799 29.0918C121.447 31.1899 119.289 34.1708 116.904 35.5722C116.807 35.4426 116.721 35.3049 116.624 35.1672C116.2 34.4871 115.651 33.8546 114.995 33.2879L114.854 33.2069L116.268 31.6111Z" fill="black"/>
<path d="M99.0267 21.5017C98.1743 18.6261 104.27 14.6487 104.27 14.6487L97.0522 12.7613C93.7938 14.5191 95.9085 19.5333 99.0267 21.5017Z" fill="#263238"/>
<path d="M123.346 13.1907C125.051 20.3839 126.583 24.5313 122.979 29.1243C121.85 30.6324 120.193 31.8799 118.187 32.7318C116.182 33.5837 113.904 34.0076 111.6 33.9576C109.297 33.9075 107.056 33.3854 105.119 32.4478C103.182 31.5103 101.624 30.1929 100.613 28.6382C96.567 22.7087 94.4631 11.9513 102.695 7.22874C104.44 6.17274 106.523 5.47955 108.737 5.21862C110.951 4.9577 113.217 5.1382 115.309 5.74206C117.4 6.34591 119.244 7.35189 120.655 8.65919C122.065 9.9665 122.993 11.5292 123.346 13.1907Z" fill="#FF8B7B"/>
<path d="M123.476 20.4649L118.944 19.5333V15.1591C118.944 15.1591 113.215 12.7289 114.1 9.69127C114.539 7.98348 115.155 6.30423 115.945 4.66899C115.945 4.66899 125.029 4.23156 127.813 5.10641C127.092 5.69291 126.309 6.2347 125.472 6.7265C127.65 7.85798 129.518 9.29355 130.974 10.9549C129.837 11.1452 128.773 11.5306 127.867 12.0809C127.867 12.0809 129.054 18.0833 123.476 20.4649Z" fill="#263238"/>
<path d="M113.053 0.00311669C116.387 1.5746 114.455 4.45836 114.455 4.45836L123.378 4.59607C122.903 2.48185 115.167 -0.102189 113.053 0.00311669Z" fill="#263238"/>
<path d="M116.538 11.1656C115.901 12.5102 108.672 14.1627 102.08 14.3247C98.7944 14.2712 95.5428 13.8114 92.4561 12.9639C93.3868 12.2462 94.4836 11.6615 95.6929 11.2385C91.7117 10.5013 86.6731 7.87677 85.2812 5.73825C88.1881 4.95827 91.3283 4.80671 94.3443 5.30083C93.3572 4.67528 92.5463 3.90817 91.959 3.0444C91.3717 2.18063 91.0198 1.23757 90.924 0.270447C90.924 0.270447 107.799 5.29272 114.294 3.21091C121.35 0.942782 126.712 5.19552 122.073 8.4357C117.433 11.6759 116.538 11.1656 116.538 11.1656Z" fill="#263238"/>
<path d="M128.503 18.3993C128.595 19.9857 127.908 21.5423 126.572 22.7735C124.824 24.3369 122.105 23.0894 121.479 21.1534C120.918 19.3956 121.652 16.682 123.95 15.8395C126.248 14.9971 128.385 16.4308 128.503 18.3993Z" fill="#FF8B7B"/>
<path d="M108.759 19.8816C108.996 20.4487 108.759 21.0076 108.327 21.1453C107.896 21.283 107.248 20.9266 107 20.3353C106.752 19.7439 107 19.2093 107.432 19.0716C107.863 18.9339 108.511 19.2822 108.759 19.8816Z" fill="#263238"/>
<path d="M100.397 22.1497C100.635 22.7087 100.397 23.2757 99.9658 23.4053C99.5342 23.5349 98.8868 23.1947 98.6387 22.5953C98.3905 21.9958 98.6387 21.4693 99.0703 21.3397C99.5018 21.2101 100.149 21.5827 100.397 22.1497Z" fill="#263238"/>
<path d="M103.256 21.85C103.291 23.5264 103.03 25.1989 102.479 26.8237C103.027 26.9112 103.594 26.9064 104.138 26.8097C104.683 26.7131 105.193 26.527 105.63 26.2648L103.256 21.85Z" fill="#A02724"/>
<path d="M108.37 28.4276C109.237 28.2095 110.036 27.8636 110.722 27.4101C111.407 26.9565 111.965 26.4047 112.362 25.7869C112.384 25.7438 112.382 25.6962 112.358 25.6539C112.334 25.6116 112.289 25.578 112.233 25.5601C112.205 25.5507 112.175 25.5456 112.145 25.545C112.115 25.5445 112.085 25.5485 112.057 25.5568C112.029 25.5651 112.003 25.5775 111.981 25.5934C111.96 25.6093 111.942 25.6282 111.931 25.6492C111.493 26.3191 110.855 26.9043 110.067 27.3594C109.28 27.8146 108.363 28.1274 107.388 28.2737C107.358 28.2784 107.33 28.2877 107.304 28.301C107.279 28.3143 107.258 28.3314 107.242 28.3511C107.225 28.3708 107.215 28.3928 107.21 28.4157C107.206 28.4386 107.208 28.462 107.216 28.4843C107.229 28.5283 107.264 28.5667 107.315 28.591C107.365 28.6153 107.427 28.6236 107.485 28.6139C107.785 28.5663 108.081 28.5041 108.37 28.4276Z" fill="#263238"/>
<path d="M110.614 16.5604C110.681 16.5307 110.736 16.4889 110.776 16.4389C110.81 16.4014 110.834 16.359 110.846 16.3145C110.858 16.2699 110.858 16.224 110.846 16.1794C110.834 16.1349 110.81 16.0926 110.776 16.0551C110.741 16.0176 110.698 15.9856 110.647 15.961C110.04 15.6563 109.344 15.4675 108.618 15.411C107.892 15.3545 107.159 15.4321 106.482 15.637C106.427 15.6567 106.377 15.6843 106.336 15.7184C106.295 15.7524 106.263 15.7922 106.243 15.8355C106.222 15.8787 106.213 15.9246 106.216 15.9705C106.219 16.0163 106.235 16.0613 106.261 16.1028C106.287 16.1442 106.324 16.1814 106.369 16.2122C106.415 16.243 106.468 16.2668 106.525 16.2823C106.583 16.2977 106.644 16.3044 106.705 16.3021C106.766 16.2998 106.826 16.2885 106.881 16.2688C107.41 16.1147 107.981 16.0592 108.545 16.1072C109.108 16.1552 109.648 16.3051 110.118 16.5442C110.19 16.582 110.275 16.6035 110.363 16.6064C110.451 16.6093 110.538 16.5933 110.614 16.5604Z" fill="#263238"/>
<path d="M98.7354 18.7395C98.7561 18.6838 98.7561 18.625 98.7354 18.5693C98.6877 18.4848 98.5975 18.4177 98.4843 18.3828C98.3712 18.3479 98.2442 18.348 98.1312 18.383C97.4517 18.5811 96.848 18.9022 96.3736 19.3176C95.8993 19.7331 95.5691 20.2302 95.4123 20.7646C95.4094 20.8485 95.4471 20.9304 95.5183 20.9951C95.5895 21.0599 95.6895 21.1031 95.7998 21.1169C95.9101 21.1307 96.0233 21.1141 96.1186 21.0702C96.214 21.0263 96.285 20.9581 96.3186 20.878C96.453 20.4613 96.7193 20.075 97.095 19.7521C97.4706 19.4292 97.9445 19.179 98.4764 19.023C98.5486 18.9966 98.6103 18.9566 98.6557 18.9069C98.7011 18.8572 98.7286 18.7995 98.7354 18.7395Z" fill="#263238"/>
<path d="M152.078 39.8897C153.265 40.9914 154.3 41.9878 155.315 43.0489C156.329 44.1101 157.386 45.1631 158.379 46.2405C160.396 48.3871 162.274 50.6147 164.108 52.8829C165.942 55.151 167.647 57.5163 169.179 60.0194C170.842 62.6161 172.161 65.3293 173.117 68.1198C173.654 69.742 173.936 71.4058 173.959 73.0773C173.932 74.7485 173.613 76.4098 173.009 78.0186C171.935 80.8194 170.367 83.5 168.348 85.9894C167.42 87.1802 166.417 88.3223 165.37 89.424C164.324 90.5257 163.212 91.5949 162.133 92.6237C159.881 94.6924 157.433 96.6361 154.808 98.4398C154.151 98.8793 153.306 99.1287 152.427 99.1433C151.547 99.1578 150.689 98.9364 150.007 98.519C149.325 98.1015 148.863 97.5152 148.705 96.8654C148.547 96.2155 148.702 95.5445 149.143 94.9728L149.24 94.8513C152.591 90.7701 155.52 86.5022 158.001 82.085C159.115 80.0942 159.925 78.0154 160.418 75.8881C160.599 75.0338 160.646 74.1666 160.558 73.3041C160.428 72.4505 160.182 71.609 159.825 70.793C158.891 68.7217 157.718 66.7159 156.318 64.7986C154.883 62.7654 153.265 60.7484 151.538 58.699C149.812 56.6496 148 54.6488 146.144 52.6803L143.306 49.7156C142.357 48.7516 141.364 47.7229 140.469 46.8399L140.404 46.7751C139.188 45.6171 138.634 44.1439 138.865 42.6794C139.095 41.215 140.091 39.8793 141.634 38.9663C143.176 38.0532 145.138 37.6376 147.089 37.8107C149.04 37.9839 150.819 38.7318 152.035 39.8897H152.078Z" fill="#407BFF"/>
<path d="M49.278 99.6468L141.073 96.5281C141.363 96.5138 141.653 96.5436 141.927 96.6156C142.201 96.6876 142.453 96.8003 142.667 96.947C142.882 97.0937 143.055 97.2714 143.176 97.4694C143.297 97.6675 143.363 97.8818 143.371 98.0996L47.1848 101.34C47.1718 101.125 47.2159 100.91 47.3145 100.709C47.413 100.507 47.5641 100.322 47.7589 100.164C47.9538 100.006 48.1884 99.8795 48.4492 99.7907C48.71 99.7019 48.9917 99.653 49.278 99.6468Z" fill="#407BFF"/>
<g opacity="0.6">
<path d="M49.278 99.6468L141.073 96.5281C141.363 96.5138 141.653 96.5436 141.927 96.6156C142.201 96.6876 142.453 96.8003 142.667 96.947C142.882 97.0937 143.055 97.2714 143.176 97.4694C143.297 97.6675 143.363 97.8818 143.371 98.0996L47.1848 101.34C47.1718 101.125 47.2159 100.91 47.3145 100.709C47.413 100.507 47.5641 100.322 47.7589 100.164C47.9538 100.006 48.1884 99.8795 48.4492 99.7907C48.71 99.7019 48.9917 99.653 49.278 99.6468Z" fill="white"/>
</g>
<path d="M34.6693 67.6743L99.9769 65.4548C100.396 65.459 100.803 65.56 101.143 65.7441C101.482 65.9282 101.738 66.1864 101.876 66.4835L114.413 96.3499C114.48 96.4732 114.506 96.6072 114.488 96.7399C114.47 96.8726 114.409 96.9998 114.31 97.1104C114.21 97.221 114.076 97.3115 113.919 97.3738C113.762 97.4362 113.587 97.4684 113.41 97.4678L48.1019 99.6873C47.6854 99.6843 47.2803 99.5846 46.9422 99.4019C46.6041 99.2191 46.3497 98.9623 46.2138 98.6666L33.6766 68.7922C33.6095 68.6694 33.5835 68.5362 33.601 68.4042C33.6185 68.2722 33.6789 68.1454 33.7769 68.035C33.8749 67.9246 34.0076 67.834 34.1632 67.7711C34.3188 67.7082 34.4925 67.675 34.6693 67.6743Z" fill="#407BFF"/>
<path opacity="0.6" d="M34.6693 67.6743L99.9769 65.4548C100.396 65.459 100.803 65.56 101.143 65.7441C101.482 65.9282 101.738 66.1864 101.876 66.4835L114.413 96.3499C114.48 96.4732 114.506 96.6072 114.488 96.7399C114.47 96.8726 114.409 96.9998 114.31 97.1104C114.21 97.221 114.076 97.3115 113.919 97.3738C113.762 97.4362 113.587 97.4684 113.41 97.4678L48.1019 99.6873C47.6854 99.6843 47.2803 99.5846 46.9422 99.4019C46.6041 99.2191 46.3497 98.9623 46.2138 98.6666L33.6766 68.7922C33.6095 68.6694 33.5835 68.5362 33.601 68.4042C33.6185 68.2722 33.6789 68.1454 33.7769 68.035C33.8749 67.9246 34.0076 67.834 34.1632 67.7711C34.3188 67.7082 34.4925 67.675 34.6693 67.6743Z" fill="white"/>
<path opacity="0.5" d="M101.897 66.4754L114.434 96.3418C114.504 96.4655 114.532 96.6003 114.515 96.7341C114.498 96.8679 114.437 96.9965 114.337 97.1082C114.238 97.2199 114.103 97.3112 113.945 97.374C113.786 97.4367 113.61 97.469 113.431 97.4677L99.998 65.4467C100.417 65.4509 100.824 65.5519 101.164 65.736C101.504 65.9201 101.76 66.1782 101.897 66.4754Z" fill="#407BFF"/>
<path opacity="0.5" d="M116.938 97.3462L141.073 96.5362C141.363 96.5219 141.653 96.5517 141.927 96.6237C142.201 96.6956 142.453 96.8083 142.667 96.9551C142.882 97.1018 143.055 97.2795 143.176 97.4775C143.297 97.6755 143.363 97.8899 143.371 98.1077L114.844 99.0716C114.825 98.8542 114.865 98.6362 114.961 98.4305C115.057 98.2249 115.207 98.0359 115.402 97.8748C115.598 97.7137 115.834 97.5839 116.098 97.493C116.362 97.4022 116.648 97.3523 116.938 97.3462Z" fill="#407BFF"/>
<path d="M147.427 94.6326L141.256 95.3049L147.578 101.907C147.578 101.907 157.623 100.7 156.458 97.3544L154.3 96.0097C153.347 95.4321 152.242 95.0111 151.058 94.7739C149.874 94.5367 148.637 94.4885 147.427 94.6326Z" fill="#FF8B7B"/>
<path d="M133.704 97.2814L141.44 102.344L147.579 101.907L141.257 95.3049L133.704 97.2814Z" fill="#FF8B7B"/>
</svg>
