<svg width="220" height="220" viewBox="0 0 220 220" fill="none" xmlns="http://www.w3.org/2000/svg">
    <path d="M7.80078 207.2H211.961" stroke="#263238" stroke-width="1.15942" stroke-linecap="round" stroke-linejoin="round" />
    <path d="M136.163 191.558L136.475 207.341L116.838 207.83C116.908 205.951 126.958 201.934 126.958 201.934L126.342 191.814L136.163 191.558Z" fill="#90CAF9" />
    <g opacity="0.6">
        <path d="M133.021 200.93C133.207 200.983 133.368 201.101 133.474 201.262C133.58 201.424 133.624 201.619 133.597 201.81C133.553 202.002 133.437 202.168 133.273 202.276C133.11 202.385 132.911 202.426 132.717 202.391C132.515 202.335 132.341 202.206 132.229 202.029C132.116 201.851 132.074 201.639 132.11 201.432C132.178 201.237 132.32 201.075 132.504 200.982C132.689 200.888 132.902 200.87 133.1 200.93" fill="white" />
    </g>
    <g opacity="0.6">
        <path d="M136.475 207.341L136.383 205.753L117.59 206.8C117.59 206.8 116.71 207.205 116.838 207.816L136.475 207.341Z" fill="white" />
    </g>
    <path d="M126.65 201.841C126.65 201.938 127.138 201.969 127.618 202.281C128.098 202.594 128.357 202.976 128.445 202.937C128.533 202.897 128.375 202.347 127.79 201.995C127.204 201.643 126.628 201.753 126.65 201.841Z" fill="#263238" />
    <path d="M124.613 202.743C124.613 202.836 125.014 202.99 125.348 203.386C125.682 203.782 125.788 204.213 125.885 204.204C125.982 204.195 126.03 203.654 125.599 203.17C125.168 202.686 124.613 202.651 124.613 202.743Z" fill="#263238" />
    <path d="M123.504 205.238C123.592 205.238 123.715 204.776 123.455 204.257C123.196 203.738 122.743 203.54 122.703 203.619C122.663 203.698 122.949 203.975 123.143 204.402C123.337 204.829 123.411 205.229 123.504 205.238Z" fill="#263238" />
    <path d="M126.769 199.522C126.809 199.61 127.244 199.465 127.79 199.487C128.336 199.509 128.758 199.672 128.806 199.588C128.855 199.505 128.441 199.175 127.799 199.148C127.157 199.122 126.721 199.448 126.769 199.522Z" fill="#263238" />
    <path d="M127.16 197.182C127.484 197.26 127.823 197.249 128.141 197.151C128.706 197.038 129.242 196.815 129.721 196.495C129.831 196.433 129.929 196.353 130.011 196.258C130.073 196.188 130.109 196.1 130.115 196.008C130.121 195.915 130.095 195.823 130.042 195.747C129.991 195.679 129.925 195.624 129.848 195.588C129.771 195.551 129.687 195.533 129.602 195.536C129.478 195.538 129.355 195.559 129.237 195.598C129.028 195.653 128.825 195.728 128.63 195.822C128.306 195.982 128.01 196.192 127.75 196.442C127.31 196.882 127.16 197.234 127.191 197.252C127.222 197.27 127.451 196.979 127.908 196.618C128.177 196.408 128.473 196.234 128.788 196.104C128.969 196.025 129.156 195.962 129.347 195.914C129.554 195.853 129.734 195.848 129.787 195.941C129.84 196.033 129.787 195.989 129.787 196.051C129.723 196.119 129.651 196.178 129.571 196.227C129.407 196.338 129.236 196.441 129.061 196.535C128.76 196.694 128.445 196.824 128.119 196.922C127.793 196.984 127.473 197.071 127.16 197.182Z" fill="#263238" />
    <path d="M127.305 197.314C127.485 197.029 127.567 196.694 127.539 196.359C127.553 195.774 127.4 195.197 127.099 194.696C127.043 194.567 126.955 194.455 126.843 194.371C126.731 194.287 126.599 194.234 126.461 194.216C126.373 194.22 126.289 194.248 126.217 194.298C126.146 194.348 126.09 194.417 126.056 194.498C126.009 194.615 125.978 194.738 125.963 194.863C125.93 195.082 125.93 195.304 125.963 195.523C126.024 195.89 126.175 196.236 126.403 196.53C126.799 197.028 127.204 197.133 127.209 197.102C127.213 197.072 126.901 196.874 126.597 196.394C126.422 196.116 126.308 195.804 126.263 195.479C126.236 195.289 126.236 195.097 126.263 194.907C126.289 194.7 126.364 194.528 126.439 194.55C126.513 194.572 126.707 194.696 126.791 194.863C126.894 195.03 126.981 195.207 127.05 195.391C127.168 195.703 127.24 196.031 127.266 196.363C127.345 196.94 127.253 197.3 127.305 197.314Z" fill="#263238" />
    <path d="M152.17 191.246L152.482 207.029L132.85 207.522C132.916 205.643 142.97 201.621 142.97 201.621L142.354 191.501L152.17 191.246Z" fill="#90CAF9" />
    <g opacity="0.6">
        <path d="M149.028 200.64C149.212 200.696 149.37 200.814 149.475 200.975C149.58 201.137 149.624 201.329 149.6 201.52C149.555 201.711 149.439 201.877 149.275 201.985C149.112 202.093 148.913 202.134 148.72 202.101C148.518 202.046 148.344 201.917 148.232 201.741C148.12 201.564 148.077 201.352 148.113 201.146C148.179 200.949 148.32 200.787 148.505 200.693C148.691 200.599 148.905 200.582 149.103 200.644" fill="white" />
    </g>
    <g opacity="0.6">
        <path d="M152.482 207.029L152.39 205.44L133.597 206.505C133.597 206.505 132.717 206.906 132.849 207.522L152.482 207.029Z" fill="white" />
    </g>
    <path d="M142.657 201.52C142.657 201.617 143.145 201.648 143.625 201.96C144.104 202.272 144.364 202.651 144.452 202.611C144.54 202.572 144.382 202.022 143.796 201.674C143.211 201.326 142.635 201.441 142.657 201.52Z" fill="#263238" />
    <path d="M140.62 202.435C140.62 202.528 141.021 202.682 141.355 203.078C141.689 203.474 141.795 203.9 141.892 203.896C141.989 203.892 142.037 203.346 141.61 202.858C141.183 202.369 140.62 202.343 140.62 202.435Z" fill="#263238" />
    <path d="M139.512 204.926C139.6 204.948 139.723 204.464 139.463 203.944C139.204 203.425 138.75 203.227 138.711 203.306C138.671 203.386 138.957 203.663 139.151 204.094C139.344 204.525 139.419 204.921 139.512 204.926Z" fill="#263238" />
    <path d="M142.776 199.21C142.815 199.298 143.251 199.157 143.797 199.179C144.342 199.201 144.765 199.364 144.813 199.28C144.861 199.197 144.448 198.84 143.805 198.84C143.163 198.84 142.723 199.14 142.776 199.21Z" fill="#263238" />
    <path d="M143.186 196.869C143.509 196.951 143.848 196.942 144.167 196.843C144.52 196.77 144.862 196.655 145.188 196.5C145.38 196.407 145.567 196.303 145.746 196.187C145.855 196.122 145.953 196.04 146.037 195.945C146.098 195.876 146.135 195.788 146.14 195.695C146.146 195.603 146.12 195.511 146.068 195.435C146.016 195.368 145.949 195.314 145.873 195.278C145.796 195.242 145.712 195.225 145.628 195.228C145.504 195.231 145.381 195.25 145.262 195.285C145.053 195.342 144.85 195.419 144.655 195.514C144.332 195.673 144.035 195.881 143.775 196.13C143.335 196.57 143.186 196.926 143.216 196.944C143.247 196.962 143.476 196.667 143.934 196.306C144.203 196.097 144.499 195.924 144.814 195.791C144.995 195.715 145.182 195.652 145.372 195.602C145.579 195.545 145.76 195.536 145.812 195.628C145.865 195.721 145.812 195.677 145.812 195.738C145.749 195.806 145.676 195.866 145.597 195.914C145.433 196.027 145.263 196.13 145.086 196.222C144.785 196.381 144.47 196.512 144.145 196.614C143.819 196.676 143.499 196.761 143.186 196.869Z" fill="#263238" />
    <path d="M143.313 197.006C143.492 196.721 143.573 196.386 143.546 196.051C143.558 195.465 143.405 194.887 143.106 194.383C143.05 194.255 142.961 194.144 142.85 194.06C142.738 193.976 142.606 193.922 142.468 193.904C142.379 193.905 142.294 193.933 142.221 193.984C142.149 194.035 142.094 194.107 142.063 194.19C142.016 194.305 141.985 194.426 141.971 194.55C141.939 194.771 141.939 194.994 141.971 195.215C142.032 195.58 142.183 195.925 142.411 196.218C142.807 196.72 143.211 196.821 143.22 196.79C143.229 196.759 142.912 196.566 142.604 196.082C142.429 195.804 142.315 195.492 142.27 195.166C142.243 194.978 142.243 194.787 142.27 194.599C142.296 194.388 142.371 194.216 142.45 194.238C142.529 194.26 142.714 194.388 142.802 194.55C142.901 194.719 142.987 194.896 143.057 195.078C143.175 195.392 143.247 195.721 143.273 196.055C143.352 196.632 143.26 196.992 143.313 197.006Z" fill="#263238" />
    <path d="M117.041 113.991C116.851 113.991 117.921 133.791 118.748 138.67C120.019 146.344 124.252 198.845 124.252 198.845H137.118L137.382 125.805L139.718 153.921L140.598 198.994L153.173 198.66L154.493 150.845C154.097 147.277 155.167 114.457 155.167 114.457L117.041 113.991Z" fill="#263238" />
    <path d="M122.862 40.1016C121.344 39.3976 120.394 37.8444 119.835 36.2692C119.276 34.694 119.021 33 118.4 31.4644C117.96 30.3072 118.444 28.4636 117.406 27.7728C116.108 26.9148 116.121 24.6268 116.623 23.4872C117.168 22.2464 118.651 21.3224 118.752 20.9308C119.016 19.8968 118.119 18.7792 118.453 17.7672C119.236 15.3868 121.177 15.6992 121.177 15.6992C122.057 14.63 123.254 13.2132 125.194 12.7116C127.293 12.1704 130.395 11.7656 132.265 12.8656C134.135 13.9656 135.512 14.7048 136.115 16.7904" fill="#263238" />
    <path d="M140.163 45.232L135.763 52.7912L129.682 58.8632L126.113 53.9616V49.0204V44.88C126.113 44.88 120.618 44.1232 120.455 38.6408C120.376 36.0008 120.657 30.5272 120.974 25.586C121.136 23.0227 122.258 20.6143 124.115 18.8402C125.972 17.0661 128.429 16.0562 130.997 16.0116H131.525C137.245 16.2492 140.229 21.23 139.833 26.9324L140.193 45.2408" fill="#CE947A" />
    <path d="M122.549 29.6428C122.552 29.8468 122.634 30.0417 122.778 30.1867C122.921 30.3318 123.115 30.416 123.319 30.4216C123.419 30.4275 123.519 30.4135 123.613 30.3802C123.708 30.347 123.794 30.2953 123.869 30.2281C123.943 30.1609 124.003 30.0796 124.045 29.9889C124.087 29.8982 124.111 29.8 124.115 29.7C124.112 29.496 124.03 29.3011 123.887 29.1561C123.743 29.011 123.549 28.9268 123.345 28.9212C123.245 28.9153 123.145 28.9293 123.051 28.9626C122.956 28.9958 122.87 29.0475 122.795 29.1147C122.721 29.1819 122.661 29.2632 122.619 29.3539C122.577 29.4446 122.553 29.5428 122.549 29.6428Z" fill="#263238" />
    <path d="M122.078 27.9576C122.179 28.0588 122.765 27.61 123.605 27.5968C124.445 27.5836 125.075 27.9972 125.163 27.8916C125.251 27.786 125.105 27.6628 124.833 27.4516C124.464 27.2029 124.027 27.0753 123.583 27.0864C123.143 27.1003 122.719 27.2544 122.373 27.5264C122.118 27.72 122.03 27.9136 122.078 27.9576Z" fill="#263238" />
    <path d="M130.465 29.4536C130.466 29.6575 130.547 29.853 130.69 29.9985C130.832 30.1439 131.027 30.2278 131.23 30.2324C131.33 30.2383 131.43 30.2243 131.525 30.191C131.619 30.1578 131.706 30.1061 131.78 30.0389C131.854 29.9717 131.914 29.8904 131.957 29.7997C131.999 29.709 132.023 29.6108 132.027 29.5108C132.025 29.3065 131.943 29.111 131.799 28.9657C131.656 28.8203 131.461 28.7366 131.257 28.732C131.157 28.7261 131.057 28.7402 130.963 28.7734C130.869 28.8067 130.782 28.8585 130.709 28.9258C130.635 28.993 130.575 29.0744 130.533 29.165C130.491 29.2557 130.468 29.3538 130.465 29.4536Z" fill="#263238" />
    <path d="M130.474 27.5792C130.562 27.6892 131.191 27.3064 132.031 27.3856C132.872 27.4648 133.444 27.94 133.545 27.8256C133.646 27.7112 133.514 27.588 133.263 27.3856C132.924 27.0985 132.504 26.9246 132.062 26.8884C131.625 26.8467 131.185 26.9453 130.808 27.17C130.535 27.3504 130.43 27.5264 130.474 27.5792Z" fill="#263238" />
    <path d="M127.5 34.562C127.053 34.4308 126.592 34.3554 126.127 34.3376C125.911 34.3376 125.709 34.2804 125.687 34.1352C125.667 33.9127 125.713 33.6893 125.819 33.4928C126.012 32.9692 126.215 32.4192 126.43 31.8472C127.271 29.4976 127.878 27.5704 127.786 27.5352C127.693 27.5 126.928 29.3788 126.083 31.7284L125.502 33.3828C125.372 33.6458 125.336 33.9457 125.401 34.232C125.434 34.3072 125.483 34.3739 125.546 34.4273C125.608 34.4806 125.682 34.5191 125.762 34.54C125.881 34.5702 126.004 34.585 126.127 34.584C126.583 34.6344 127.045 34.627 127.5 34.562Z" fill="#263238" />
    <path d="M129.99 35.1032C129.853 35.1032 129.866 36.014 129.11 36.674C128.353 37.334 127.35 37.2548 127.35 37.3824C127.35 37.4396 127.57 37.554 127.979 37.5584C128.515 37.5582 129.034 37.368 129.444 37.0216C129.837 36.6877 130.084 36.2145 130.135 35.7016C130.161 35.3232 130.051 35.0944 129.99 35.1032Z" fill="#263238" />
    <path d="M130.526 24.8028C130.596 25.036 131.441 24.9832 132.422 25.168C133.404 25.3528 134.182 25.6784 134.323 25.4804C134.389 25.388 134.266 25.1636 133.958 24.9172C133.549 24.6139 133.074 24.4118 132.572 24.3276C132.072 24.2312 131.555 24.2568 131.067 24.4024C130.68 24.5256 130.5 24.6928 130.526 24.8028Z" fill="#263238" />
    <path d="M122.435 25.8016C122.585 25.9908 123.165 25.8016 123.861 25.762C124.556 25.7224 125.154 25.8676 125.286 25.6652C125.343 25.5684 125.247 25.3748 124.987 25.1988C124.636 24.9872 124.231 24.8847 123.822 24.9042C123.413 24.9238 123.019 25.0647 122.69 25.3088C122.444 25.52 122.369 25.7092 122.435 25.8016Z" fill="#263238" />
    <path d="M135.705 16.3988C135.707 17.0083 135.575 17.6108 135.318 18.1635C135.061 18.7162 134.686 19.2055 134.218 19.5966C133.751 19.9876 133.203 20.2709 132.613 20.4262C132.024 20.5815 131.408 20.6051 130.808 20.4952C129.88 20.328 128.863 19.8572 128.062 20.3544C127.262 20.8516 127.182 22.1452 126.434 22.7964C125.365 23.7248 123.662 22.8536 122.303 23.2364C121.256 23.5488 120.6 24.5564 119.905 25.3924C119.21 26.2284 118.145 27.038 117.115 26.7124C117.146 25.7669 117.285 24.828 117.529 23.914C117.782 22.9924 118.344 22.1859 119.122 21.6304C119.575 21.3936 120.015 21.1336 120.442 20.8516C121.322 20.1476 121.515 18.9244 122.052 17.9432C122.406 17.3125 122.905 16.7753 123.508 16.3759C124.111 15.9765 124.8 15.7264 125.519 15.6464C126.716 15.5232 127.944 15.8796 129.11 15.5892C129.968 15.3692 130.72 14.8104 131.591 14.6476C133.29 14.322 134.865 15.5276 136.097 16.7552" fill="#263238" />
    <path d="M130.276 18.8144C131.037 18.5944 132.595 18.1016 132.999 17.4416C133.879 16.0072 135.45 15.0304 137.048 15.1184C137.874 15.1824 138.657 15.5125 139.279 16.059C139.902 16.6056 140.331 17.3392 140.502 18.15C141.493 18.1861 142.457 18.4887 143.292 19.026C144.127 19.5633 144.801 20.3155 145.245 21.2036C145.701 22.1355 145.923 23.1643 145.893 24.2014C145.863 25.2384 145.582 26.2527 145.073 27.1568C144.744 27.5838 144.53 28.0884 144.453 28.622C144.453 29.2996 144.945 29.832 145.297 30.382C146.257 31.9044 146.177 33.9988 145.443 35.662C144.708 37.3252 144.175 37.9016 143.119 38.236C141.047 38.8828 143.119 43.0496 139.661 43.0496L138.966 30.7296C138.866 30.7859 138.757 30.826 138.645 30.8484C136.603 31.3104 136.335 27.3284 136.792 26.1888C136.023 25.56 135.336 24.8371 134.746 24.0372C134.183 23.2056 133.686 20.9572 133.805 19.9144C133.07 19.9408 129.941 18.92 130.276 18.8144Z" fill="#263238" />
    <path d="M138.68 30.8C138.772 30.756 142.429 29.6208 142.372 33.3696C142.314 37.1184 138.561 36.2912 138.557 36.1856C138.552 36.08 138.68 30.8 138.68 30.8Z" fill="#CE947A" />
    <path d="M139.722 34.76C139.722 34.76 139.788 34.8084 139.898 34.8612C140.055 34.9255 140.23 34.9255 140.387 34.8612C140.787 34.7204 141.13 34.0956 141.157 33.4224C141.17 33.1015 141.113 32.7817 140.989 32.4852C140.955 32.3678 140.893 32.2603 140.809 32.1715C140.725 32.0827 140.621 32.0153 140.505 31.9748C140.43 31.954 140.35 31.9598 140.279 31.991C140.208 32.0223 140.149 32.0771 140.114 32.1464C140.065 32.252 140.087 32.3268 140.065 32.3312C140.043 32.3356 139.986 32.2696 140.017 32.1156C140.042 32.0232 140.096 31.9413 140.171 31.8824C140.275 31.8056 140.404 31.7724 140.532 31.79C140.686 31.8228 140.828 31.8947 140.946 31.9988C141.064 32.1028 141.153 32.2355 141.205 32.384C141.36 32.7104 141.433 33.0701 141.416 33.4312C141.381 34.188 140.976 34.8876 140.439 35.0372C140.339 35.065 140.233 35.07 140.13 35.0517C140.028 35.0334 139.93 34.9924 139.845 34.9316C139.731 34.8656 139.709 34.782 139.722 34.76Z" fill="#A56349" />
    <path d="M144.901 36.7752C144.673 37.0236 144.501 37.3188 144.398 37.6404C144.295 37.962 144.263 38.3022 144.305 38.6373C144.347 38.9723 144.461 39.2942 144.64 39.5806C144.819 39.8669 145.059 40.1108 145.341 40.2952C145.188 40.4337 145.007 40.5398 144.812 40.6071C144.616 40.6744 144.408 40.7015 144.202 40.6868C144.057 41.1576 144.721 41.4832 144.857 41.9584C144.889 42.104 144.881 42.2552 144.834 42.3967C144.788 42.5382 144.705 42.6648 144.593 42.7636C144.371 42.9631 144.108 43.1131 143.823 43.2036C142.99 43.5023 142.116 43.67 141.232 43.7008C140.976 43.7363 140.716 43.7154 140.47 43.6393C140.224 43.5633 139.997 43.4341 139.806 43.2608C139.567 42.9013 139.456 42.4723 139.489 42.042L139.397 38.8432C139.355 38.5296 139.414 38.2107 139.564 37.9324C139.805 37.6625 140.134 37.4877 140.493 37.4396L145.038 36.278" fill="#263238" />
    <path d="M156.43 109.872C155.844 106.44 152.329 89.87 152.329 89.87L154.502 50.27C153.499 49.5968 140.154 44.7568 140.154 44.7568C140.154 44.7568 138.099 50.8552 131.57 52.1928C125.04 53.5304 126.078 48.642 126.078 48.642C126.078 48.642 113.318 55.4576 112.575 55.9592C111.831 56.4608 108.654 69.2648 108.654 69.2648L106.252 77.55L116.341 79.8952C116.341 79.8952 116.592 99.6468 116.341 101.068C116.09 102.489 115.584 113.96 115.584 113.96L155.184 114.462C155.184 114.462 157.015 113.304 156.43 109.872Z" fill="#90CAF9" />
    <path d="M154.502 50.2832C154.502 50.2832 156.944 52.6768 157.763 55.044C158.581 57.4112 161.111 72.9344 161.111 72.9344C161.111 72.9344 147.225 74.8968 147.225 74.6504C147.225 74.404 148.448 65.7448 148.857 63.052C149.266 60.3592 154.502 50.2832 154.502 50.2832Z" fill="#90CAF9" />
    <path d="M124.696 69.366L123.777 71.5044H123.2L122.285 69.366H122.941L123.522 70.7608L124.116 69.366H124.696Z" fill="white" />
    <path d="M124.683 70.4352C124.667 70.1964 124.724 69.9584 124.845 69.7521C124.966 69.5458 125.147 69.3807 125.363 69.2783C125.579 69.1759 125.821 69.1409 126.058 69.178C126.294 69.215 126.514 69.3223 126.688 69.4859C126.863 69.6495 126.984 69.8619 127.037 70.0954C127.089 70.3289 127.07 70.5727 126.982 70.7952C126.894 71.0176 126.74 71.2084 126.542 71.3428C126.344 71.4771 126.111 71.5488 125.871 71.5484C125.719 71.558 125.567 71.5364 125.423 71.4848C125.279 71.4332 125.148 71.3528 125.037 71.2485C124.925 71.1443 124.837 71.0183 124.776 70.8784C124.715 70.7385 124.684 70.5877 124.683 70.4352ZM126.443 70.4352C126.437 70.3216 126.398 70.2124 126.33 70.1209C126.263 70.0294 126.17 69.9598 126.063 69.9207C125.956 69.8816 125.841 69.8746 125.73 69.9007C125.619 69.9269 125.519 69.9849 125.441 70.0677C125.363 70.1504 125.311 70.2542 125.291 70.3663C125.272 70.4783 125.285 70.5936 125.331 70.6978C125.376 70.8021 125.451 70.8907 125.546 70.9528C125.642 71.0148 125.753 71.0475 125.867 71.0468C125.946 71.0482 126.025 71.0331 126.098 71.0025C126.171 70.9718 126.237 70.9263 126.292 70.8688C126.346 70.8113 126.389 70.743 126.415 70.6684C126.442 70.5937 126.453 70.5143 126.448 70.4352H126.443Z" fill="white" />
    <path d="M127.376 69.366H127.979V71.0248H129V71.5044H127.376V69.366Z" fill="white" />
    <path d="M129.197 70.554V69.366H129.8V70.532C129.8 70.9016 129.954 71.0468 130.209 71.0468C130.464 71.0468 130.61 70.9016 130.61 70.532V69.366H131.208V70.554C131.191 70.8092 131.078 71.0483 130.891 71.2231C130.705 71.3978 130.458 71.495 130.203 71.495C129.947 71.495 129.701 71.3978 129.514 71.2231C129.327 71.0483 129.214 70.8092 129.197 70.554Z" fill="white" />
    <path d="M133.65 69.366V71.5044H133.153L132.207 70.3648V71.5044H131.613V69.366H132.11L133.056 70.5056V69.366H133.65Z" fill="white" />
    <path d="M134.531 69.8456H133.875V69.366H135.789V69.8456H135.138V71.5044H134.531V69.8456Z" fill="white" />
    <path d="M137.721 71.038V71.5044H136.005V69.366H137.681V69.8324H136.603V70.1932H137.554V70.6332H136.603V71.0248L137.721 71.038Z" fill="white" />
    <path d="M139.784 71.038V71.5044H138.068V69.366H139.745V69.8324H138.667V70.1932H139.617V70.6332H138.667V71.0248L139.784 71.038Z" fill="white" />
    <path d="M141.051 70.9368H140.721V71.5044H140.118V69.366H141.095C141.68 69.366 142.045 69.6696 142.045 70.158C142.05 70.299 142.013 70.4382 141.939 70.558C141.864 70.6779 141.756 70.7729 141.627 70.8312L142.089 71.5044H141.438L141.051 70.9368ZM141.051 69.8412H140.712V70.4704H141.051C141.302 70.4704 141.425 70.3516 141.425 70.158C141.425 69.9644 141.311 69.8412 141.06 69.8412H141.051Z" fill="white" />
    <path d="M116.376 86.4864C116.353 86.4169 116.341 86.3441 116.341 86.2708C116.341 86.0992 116.306 85.888 116.279 85.6372C116.24 85.0916 116.196 84.3172 116.165 83.314C116.099 81.3472 116.077 78.6368 116.099 75.636C116.121 72.6352 116.174 69.916 116.231 67.9624C116.262 67.0076 116.293 66.2024 116.31 65.6392C116.31 65.384 116.337 65.1772 116.345 65.0056C116.345 64.9312 116.356 64.8572 116.376 64.7856C116.387 64.8586 116.387 64.9326 116.376 65.0056C116.376 65.1772 116.376 65.3884 116.376 65.6392C116.376 66.2244 116.376 67.012 116.376 67.9668C116.376 69.96 116.337 72.6572 116.31 75.6404C116.284 78.6236 116.288 81.3604 116.31 83.3096C116.31 84.2908 116.337 85.0696 116.354 85.6328C116.354 85.888 116.354 86.0728 116.354 86.2664C116.371 86.3384 116.379 86.4124 116.376 86.4864Z" fill="#263238" />
    <path d="M148.479 60.6628C148.501 60.8337 148.501 61.0067 148.479 61.1776C148.479 61.5604 148.479 62.0268 148.457 62.5812C148.457 63.822 148.43 65.4324 148.413 67.2188C148.395 69.0052 148.364 70.6684 148.303 71.8564C148.272 72.4504 148.241 72.93 148.206 73.26C148.198 73.4322 148.173 73.6031 148.131 73.7704C148.109 73.5995 148.109 73.4265 148.131 73.2556C148.131 72.8728 148.131 72.4064 148.131 71.852C148.131 70.6112 148.158 69.0008 148.175 67.2144C148.193 65.428 148.228 63.7648 148.285 62.5768C148.316 61.9828 148.351 61.5032 148.382 61.1732C148.397 61.0003 148.43 60.8293 148.479 60.6628Z" fill="#263238" />
    <path d="M154.084 50.6C152.17 51.2718 150.499 52.497 149.283 54.12C149.384 53.8399 149.533 53.5794 149.723 53.35C150.161 52.7694 150.683 52.2577 151.272 51.832C151.858 51.4026 152.505 51.0616 153.19 50.82C153.472 50.6933 153.775 50.6187 154.084 50.6Z" fill="#263238" />
    <path d="M115.641 60.3944C115.584 60.4296 115.003 59.4264 114.145 58.2956C113.287 57.1648 112.491 56.32 112.539 56.2716C113.866 57.3936 114.92 58.8036 115.619 60.3944H115.641Z" fill="#263238" />
    <path d="M139.942 85.2236C139.902 85.2956 139.855 85.3634 139.801 85.426C139.687 85.5712 139.546 85.756 139.361 85.976C138.987 86.4556 138.424 87.1332 137.711 87.9516C135.849 90.0886 133.874 92.1243 131.793 94.05C129.713 95.9737 127.532 97.7861 125.259 99.4796C124.379 100.126 123.667 100.637 123.161 100.971L122.575 101.358C122.51 101.408 122.439 101.449 122.364 101.482C122.42 101.423 122.482 101.369 122.549 101.323L123.108 100.883C123.601 100.522 124.3 100.003 125.163 99.33C126.879 98.01 129.206 96.1136 131.639 93.8652C134.073 91.6168 136.136 89.4432 137.593 87.8284C138.319 87.0232 138.913 86.3632 139.295 85.9012L139.735 85.3776C139.876 85.2764 139.92 85.2192 139.942 85.2236Z" fill="#263238" />
    <path d="M156.671 135.96L161.92 119.887C162.703 117.484 163.561 114.968 165.44 113.287C166.536 112.301 168.203 111.659 169.479 112.407C169.897 112.688 170.24 113.066 170.479 113.509C170.718 113.952 170.846 114.447 170.852 114.95C170.859 115.956 170.693 116.956 170.364 117.907C168.252 125.224 165.682 132.396 163.011 139.528L163.284 139.036" fill="#90CAF9" />
    <path d="M163.68 132.282C163.68 132.352 162.848 132.172 161.92 131.771C160.992 131.371 160.283 130.922 160.323 130.856C160.362 130.79 161.102 131.129 162.026 131.516C162.95 131.903 163.711 132.207 163.68 132.282Z" fill="#263238" />
    <path d="M165.441 128.401C165.41 128.471 164.561 128.124 163.483 127.701C162.405 127.279 161.556 126.931 161.578 126.856C161.6 126.782 162.51 127.015 163.584 127.446C164.658 127.877 165.441 128.33 165.441 128.401Z" fill="#263238" />
    <path d="M167.051 125.193C167.007 125.259 166.171 124.722 165.049 124.243C163.927 123.763 162.972 123.517 162.989 123.433C163.007 123.35 164.015 123.49 165.159 123.988C166.303 124.485 167.095 125.136 167.051 125.193Z" fill="#263238" />
    <path d="M168.08 121.15C168.028 121.211 167.306 120.617 166.294 120.102C165.282 119.588 164.389 119.337 164.407 119.258C164.424 119.178 165.375 119.315 166.422 119.856C167.469 120.397 168.129 121.101 168.08 121.15Z" fill="#263238" />
    <path d="M156.565 122.214H154.999V125.316H156.565V122.214Z" fill="#263238" />
    <path d="M154.814 131.371V124.898H156.724V130.297C156.724 130.297 158.735 130.354 158.986 131.239C159.536 133.184 159.294 137.557 159.294 137.557L154.814 131.371Z" fill="#455A64" />
    <path d="M171.336 148.57C170.795 145.319 169.963 142.102 169.805 138.811C169.699 136.554 169.915 134.279 169.633 132.035C169.295 129.334 168.252 126.777 167.218 124.26C166.549 122.628 165.819 120.916 164.424 119.83C163.579 119.196 162.558 118.841 161.502 118.813C159.584 118.026 154.321 117.801 152.658 121.33C151.778 123.204 151.673 125.338 151.167 127.354C150.489 130.064 150.977 130.957 150.089 133.606C148.201 139.269 145.337 146.296 146.173 152.209C146.335 153.358 148.249 155.25 148.901 156.209C149.838 157.595 151.541 158.215 153.195 158.567C157.868 159.545 162.73 159.025 167.09 157.08C168.648 156.38 170.201 155.43 170.989 153.916C171.825 152.306 171.635 150.366 171.336 148.57ZM166.347 130.31C165.467 131.05 164.182 130.689 163.042 130.632C161.674 130.561 160.336 131.006 158.985 131.239C157.635 131.472 156.125 131.463 155.025 130.627C154.221 129.943 153.716 128.972 153.617 127.921C153.523 126.881 153.581 125.833 153.789 124.81C153.882 124.011 154.086 123.229 154.396 122.487C154.711 121.737 155.299 121.135 156.042 120.802C156.922 120.362 160.099 120.072 161.322 119.887C162.409 120.433 163.355 121.223 164.085 122.197C165.063 123.552 165.855 125.032 166.439 126.597C166.725 127.196 166.911 127.838 166.989 128.498C167.029 128.829 166.992 129.165 166.881 129.479C166.769 129.794 166.586 130.078 166.347 130.31Z" fill="#FAFAFA" />
    <path d="M166.347 130.31C166.562 130.092 166.726 129.829 166.827 129.54C166.942 129.195 166.983 128.829 166.946 128.467C166.885 127.979 166.754 127.501 166.558 127.05C166.073 125.816 165.501 124.617 164.847 123.464C164.026 121.981 162.788 120.771 161.287 119.984H161.349L158.775 120.322C158.335 120.384 157.895 120.454 157.428 120.538C156.976 120.609 156.534 120.73 156.108 120.899C155.41 121.212 154.853 121.773 154.546 122.474C154.271 123.101 154.083 123.763 153.988 124.441C153.878 125.114 153.768 125.761 153.724 126.43C153.669 127.068 153.705 127.711 153.829 128.339C153.954 128.935 154.208 129.497 154.573 129.985C154.929 130.441 155.404 130.789 155.946 130.992C156.464 131.176 157.011 131.267 157.56 131.261C158.558 131.221 159.547 131.074 160.513 130.821C161.325 130.624 162.159 130.531 162.994 130.544C163.729 130.588 164.35 130.702 164.86 130.702C165.252 130.721 165.643 130.651 166.004 130.495C166.246 130.376 166.352 130.28 166.36 130.288C166.263 130.389 166.15 130.474 166.026 130.539C165.663 130.714 165.263 130.8 164.86 130.79C164.341 130.79 163.712 130.702 162.99 130.671C162.166 130.673 161.346 130.777 160.548 130.979C159.57 131.236 158.566 131.383 157.556 131.419C156.984 131.431 156.414 131.338 155.875 131.146C155.297 130.938 154.789 130.57 154.41 130.086C153.656 129.009 153.332 127.689 153.499 126.386C153.543 125.717 153.653 125.066 153.763 124.37C153.863 123.673 154.057 122.992 154.34 122.346C154.67 121.59 155.273 120.985 156.029 120.652C156.476 120.476 156.941 120.35 157.415 120.278C157.855 120.195 158.322 120.124 158.77 120.063L161.34 119.733H161.375H161.406C162.94 120.542 164.199 121.789 165.023 123.314C165.675 124.48 166.237 125.693 166.704 126.944C166.897 127.409 167.022 127.9 167.073 128.401C167.103 128.776 167.051 129.153 166.919 129.505C166.836 129.725 166.712 129.926 166.554 130.099C166.497 130.18 166.427 130.252 166.347 130.31Z" fill="#263238" />
    <path d="M171.336 148.57C171.336 148.57 171.424 148.944 171.517 149.67C171.579 150.118 171.614 150.569 171.622 151.021C171.64 151.64 171.576 152.258 171.433 152.86C171.25 153.62 170.886 154.325 170.373 154.915C169.756 155.605 169.022 156.178 168.204 156.609C166.216 157.652 164.079 158.381 161.868 158.77C159.186 159.256 156.44 159.256 153.758 158.77C153.021 158.649 152.295 158.465 151.589 158.22C150.849 157.973 150.162 157.591 149.561 157.093C149.26 156.835 148.994 156.539 148.769 156.213C148.544 155.896 148.289 155.593 148.034 155.285C147.498 154.671 147.001 154.025 146.547 153.349C146.305 152.996 146.14 152.595 146.063 152.174C146.023 151.756 145.962 151.338 145.948 150.916C145.906 150.062 145.921 149.206 145.992 148.355C146.153 146.603 146.459 144.868 146.908 143.167C147.348 141.434 147.898 139.696 148.487 137.949C148.786 137.069 149.09 136.189 149.394 135.309C149.697 134.429 150.023 133.549 150.274 132.634C150.486 131.711 150.616 130.772 150.661 129.826C150.741 128.885 150.902 127.951 151.14 127.037C151.558 125.233 151.704 123.367 152.408 121.664C152.492 121.452 152.592 121.246 152.707 121.048C152.813 120.845 152.938 120.652 153.081 120.472C153.355 120.108 153.681 119.786 154.049 119.517C154.779 119.001 155.607 118.64 156.482 118.457C157.33 118.271 158.198 118.2 159.065 118.246C159.915 118.276 160.755 118.438 161.555 118.725H161.621V118.8L161.52 118.694C162.758 118.723 163.944 119.201 164.855 120.041C165.68 120.866 166.332 121.847 166.774 122.927C167.642 124.881 168.402 126.882 169.048 128.92C169.333 129.86 169.547 130.821 169.686 131.793C169.803 132.702 169.86 133.618 169.858 134.534C169.858 136.294 169.796 137.914 169.906 139.374C170.006 140.679 170.172 141.977 170.404 143.264C170.597 144.39 170.782 145.354 170.927 146.137C171.072 146.92 171.178 147.519 171.248 147.928C171.279 148.126 171.301 148.28 171.319 148.39C171.336 148.5 171.319 148.548 171.319 148.548C171.319 148.548 171.319 148.496 171.284 148.394C171.248 148.293 171.231 148.13 171.196 147.932C171.112 147.519 170.998 146.92 170.844 146.146C170.69 145.372 170.492 144.408 170.285 143.282C170.045 141.992 169.87 140.691 169.761 139.383C169.642 137.914 169.708 136.303 169.691 134.543C169.685 133.634 169.622 132.726 169.502 131.824C169.361 130.86 169.148 129.909 168.864 128.977C168.206 126.948 167.439 124.957 166.567 123.011C166.132 121.956 165.492 120.999 164.684 120.195C163.809 119.392 162.672 118.936 161.485 118.91H161.384V118.8L161.45 118.897C160.67 118.627 159.854 118.478 159.03 118.457C158.182 118.414 157.333 118.483 156.504 118.664C155.658 118.84 154.858 119.191 154.154 119.693C153.803 119.948 153.492 120.254 153.23 120.6C153.096 120.771 152.978 120.955 152.878 121.15C152.768 121.342 152.671 121.542 152.588 121.748C151.906 123.402 151.756 125.268 151.338 127.081C151.1 127.985 150.941 128.908 150.863 129.84C150.817 130.797 150.686 131.748 150.472 132.682C150.225 133.61 149.895 134.49 149.592 135.379C149.288 136.268 148.989 137.139 148.685 138.019C148.096 139.779 147.55 141.495 147.11 143.224C146.661 144.912 146.353 146.634 146.19 148.372C146.12 149.214 146.103 150.059 146.142 150.902C146.142 151.32 146.221 151.734 146.256 152.143C146.322 152.535 146.472 152.907 146.696 153.234C147.144 153.904 147.633 154.545 148.162 155.153C148.417 155.465 148.672 155.769 148.905 156.094C149.117 156.42 149.371 156.717 149.662 156.974C150.244 157.455 150.909 157.825 151.624 158.066C152.321 158.307 153.036 158.491 153.763 158.616C156.42 159.109 159.144 159.121 161.806 158.651C164.004 158.274 166.131 157.56 168.111 156.534C168.919 156.114 169.648 155.556 170.263 154.884C170.767 154.308 171.128 153.621 171.314 152.878C171.546 151.84 171.589 150.768 171.442 149.714C171.398 149.358 171.363 149.085 171.341 148.892C171.319 148.698 171.336 148.57 171.336 148.57Z" fill="#263238" />
    <path d="M166.347 130.31C166.555 130.089 166.715 129.827 166.817 129.54C166.933 129.195 166.973 128.829 166.936 128.467C166.876 127.979 166.744 127.503 166.545 127.054C166.06 125.821 165.486 124.624 164.829 123.473C164.01 121.992 162.774 120.784 161.273 120.001H161.348L158.774 120.34C158.334 120.406 157.894 120.472 157.432 120.556C156.981 120.627 156.538 120.747 156.112 120.912C155.421 121.225 154.869 121.783 154.563 122.478C154.289 123.104 154.103 123.764 154.009 124.441C153.895 125.11 153.789 125.761 153.741 126.43C153.581 127.667 153.882 128.92 154.585 129.95C154.938 130.403 155.411 130.749 155.949 130.948C156.465 131.131 157.008 131.224 157.555 131.221C158.551 131.179 159.539 131.032 160.503 130.781C161.317 130.582 162.152 130.489 162.989 130.504C163.729 130.548 164.345 130.667 164.855 130.667C165.245 130.688 165.635 130.619 165.995 130.464C166.237 130.35 166.342 130.253 166.355 130.262C166.26 130.366 166.147 130.453 166.021 130.517C165.659 130.696 165.259 130.783 164.855 130.772C164.336 130.772 163.707 130.684 162.985 130.658C162.163 130.662 161.344 130.766 160.547 130.97C159.569 131.236 158.564 131.393 157.551 131.437C156.978 131.445 156.407 131.352 155.866 131.164C155.282 130.954 154.77 130.583 154.387 130.095C153.632 129.012 153.306 127.687 153.472 126.377C153.516 125.708 153.626 125.057 153.736 124.362C153.833 123.66 154.028 122.975 154.317 122.329C154.65 121.568 155.256 120.96 156.015 120.626C156.462 120.446 156.929 120.319 157.406 120.248C157.846 120.16 158.317 120.094 158.761 120.032L161.335 119.702H161.375H161.41C162.946 120.514 164.208 121.764 165.035 123.292C165.685 124.46 166.245 125.675 166.712 126.927C166.907 127.393 167.03 127.885 167.077 128.388C167.106 128.764 167.051 129.143 166.919 129.496C166.836 129.716 166.712 129.917 166.553 130.09C166.498 130.176 166.428 130.25 166.347 130.31Z" fill="#263238" />
    <path d="M167.772 144.091C167.736 143.799 167.627 143.521 167.456 143.282C167.285 143.043 167.056 142.851 166.791 142.723C165.973 142.366 165.031 142.859 164.437 143.537C163.843 144.214 163.522 145.068 162.989 145.776C162.522 146.389 161.918 146.885 161.227 147.226C160.535 147.566 159.774 147.742 159.003 147.739C157.129 147.739 155.259 146.634 153.468 147.189C152.856 147.378 152.245 147.858 152.24 148.509C152.28 148.948 152.482 149.356 152.808 149.653C153.702 150.609 154.878 151.253 156.165 151.492C158.391 151.417 160.581 150.905 162.611 149.987C164.961 148.984 166.69 147.743 167.499 145.816C167.748 145.277 167.842 144.68 167.772 144.091Z" fill="#E0E0E0" />
    <path d="M167.464 146.731C167.358 146.885 167.232 147.024 167.09 147.145C166.724 147.5 166.338 147.833 165.933 148.144C163.236 150.212 159.973 151.409 156.579 151.576C156.069 151.608 155.557 151.608 155.048 151.576C154.861 151.575 154.674 151.552 154.493 151.505C154.493 151.452 155.29 151.505 156.566 151.395C159.897 151.122 163.091 149.948 165.806 147.998C166.853 147.242 167.434 146.692 167.464 146.731Z" fill="#263238" />
    <path d="M166.818 136.796C166.822 137.031 166.8 137.266 166.752 137.496C166.69 137.936 166.593 138.587 166.435 139.379C166.253 140.312 165.995 141.229 165.665 142.12C165.262 143.222 164.676 144.249 163.931 145.156C163.178 146.07 162.209 146.781 161.111 147.224C160.211 147.564 159.251 147.714 158.291 147.664C157.646 147.64 157.008 147.529 156.394 147.334C156.179 147.264 156.016 147.198 155.906 147.149C155.796 147.101 155.743 147.07 155.747 147.061C156.577 147.297 157.433 147.433 158.295 147.466C159.227 147.482 160.153 147.313 161.019 146.969C162.071 146.531 162.999 145.84 163.72 144.958C165.287 143.084 165.872 140.862 166.241 139.322C166.426 138.538 166.554 137.9 166.646 137.456C166.681 137.231 166.739 137.01 166.818 136.796Z" fill="#263238" />
    <path d="M152.597 144.496C152.318 144.315 152.081 144.076 151.902 143.796C151.417 143.159 151.063 142.432 150.859 141.658C150.651 140.883 150.594 140.074 150.692 139.278C150.712 138.947 150.799 138.623 150.947 138.327C151.04 138.327 150.635 139.823 151.123 141.583C151.612 143.343 152.681 144.443 152.597 144.496Z" fill="#263238" />
    <path d="M153.275 131.287C153.088 130.74 152.954 130.175 152.874 129.602C152.601 128.224 152.515 126.815 152.619 125.413C152.735 123.996 153.23 122.635 154.054 121.475C154.306 121.128 154.601 120.814 154.934 120.542C155.047 120.432 155.18 120.342 155.325 120.278C154.926 120.693 154.556 121.134 154.216 121.598C153.468 122.756 153.014 124.079 152.896 125.453C152.795 126.832 152.853 128.218 153.068 129.584C153.173 130.147 153.242 130.716 153.275 131.287Z" fill="#263238" />
    <path d="M149.68 74.4656L153.134 89.9888L154.168 114.356L161.692 113.797L162.783 88.9636L160.336 73.0444L149.68 74.4656Z" fill="#CE947A" />
    <path d="M154.969 123.332C154.895 123.367 154.813 123.385 154.731 123.385C154.649 123.384 154.568 123.366 154.494 123.331C154.42 123.295 154.355 123.244 154.303 123.18C154.251 123.117 154.214 123.042 154.194 122.962C153.908 121.898 153.169 119.002 153.187 117.929C153.213 116.578 153.988 111.373 153.988 111.373L161.833 111.426L163.804 118.584C163.804 118.584 163.289 121.524 162.774 121.695C162.447 121.778 162.115 121.843 161.78 121.889L161.564 122.791C161.124 124.168 159.492 123.79 159.492 123.79C159.419 124.055 159.287 124.301 159.104 124.508C158.922 124.714 158.695 124.876 158.44 124.982C158.205 125.066 157.95 125.081 157.707 125.025C157.463 124.97 157.24 124.847 157.063 124.67C157.063 124.67 155.99 125.299 155.519 124.775C155.048 124.252 155.18 123.125 155.18 123.125C155.136 123.216 155.061 123.289 154.969 123.332Z" fill="#CE947A" />
    <path d="M155.198 123.715C155.21 123.635 155.21 123.553 155.198 123.473C155.2 123.254 155.19 123.035 155.167 122.817C155.123 122.267 155.008 121.497 154.881 120.679C154.764 119.973 154.689 119.26 154.656 118.545C154.656 117.999 154.722 117.665 154.7 117.665C154.664 117.737 154.639 117.814 154.626 117.894C154.58 118.109 154.555 118.329 154.551 118.549C154.553 119.272 154.616 119.993 154.74 120.705C154.868 121.537 154.995 122.289 155.066 122.835C155.136 123.38 155.176 123.715 155.198 123.715Z" fill="#A56349" />
    <path d="M157.019 124.678C157.091 124.496 157.133 124.303 157.142 124.106C157.196 123.639 157.209 123.168 157.182 122.698C157.151 122.148 157.098 121.651 157.05 121.299C157.038 121.103 157.003 120.91 156.944 120.723C156.939 121.384 156.968 122.045 157.032 122.703C157.058 123.167 157.058 123.633 157.032 124.098C157.011 124.29 157.007 124.485 157.019 124.678Z" fill="#A56349" />
    <path d="M159.51 123.803C159.629 123.252 159.669 122.688 159.629 122.126C159.635 121.563 159.554 121.002 159.391 120.463C159.351 120.463 159.453 121.211 159.479 122.131C159.505 123.05 159.466 123.798 159.51 123.803Z" fill="#A56349" />
    <path d="M161.564 122.791C161.746 121.937 161.728 121.053 161.511 120.208C161.497 120.639 161.507 121.071 161.542 121.502C161.559 122.21 161.524 122.786 161.564 122.791Z" fill="#A56349" />
    <path d="M159.281 119.39C159.281 119.39 159.325 119.297 159.281 119.148C159.243 118.952 159.141 118.776 158.99 118.646C158.835 118.519 158.641 118.449 158.44 118.448C158.291 118.448 158.203 118.492 158.207 118.51C158.453 118.535 158.688 118.619 158.894 118.756C159.074 118.931 159.207 119.149 159.281 119.39Z" fill="#A56349" />
    <path d="M161.506 118.642C161.546 118.642 161.506 118.347 161.203 118.158C161.126 118.093 161.033 118.05 160.934 118.033C160.835 118.017 160.733 118.028 160.64 118.065C160.64 118.109 160.886 118.118 161.124 118.281C161.361 118.444 161.48 118.655 161.506 118.642Z" fill="#A56349" />
    <path d="M156.68 119.024C156.72 119.024 156.733 118.813 156.544 118.668C156.355 118.523 156.152 118.58 156.166 118.62C156.179 118.659 156.32 118.672 156.456 118.782C156.592 118.892 156.641 119.029 156.68 119.024Z" fill="#A56349" />
    <path d="M154.001 111.373C153.999 111.393 153.999 111.414 154.001 111.434L153.97 111.628C153.939 111.804 153.9 112.068 153.851 112.372C153.75 113.018 153.609 113.964 153.451 115.152C153.376 115.751 153.292 116.402 153.222 117.115C153.174 117.484 153.158 117.856 153.174 118.228C153.206 118.624 153.258 119.017 153.332 119.407C153.477 120.208 153.671 121.048 153.886 121.92C153.944 122.135 153.996 122.36 154.054 122.58C154.084 122.69 154.115 122.8 154.142 122.914C154.168 123.039 154.226 123.156 154.309 123.253C154.398 123.355 154.52 123.423 154.653 123.447C154.787 123.471 154.924 123.449 155.044 123.385C155.078 123.359 155.103 123.321 155.114 123.279C155.126 123.248 155.136 123.215 155.145 123.182C155.145 123.121 155.171 123.064 155.18 123.002C155.196 122.878 155.204 122.753 155.206 122.628C155.206 122.609 155.199 122.591 155.186 122.578C155.173 122.565 155.155 122.558 155.136 122.558C155.117 122.558 155.099 122.565 155.086 122.578C155.073 122.591 155.066 122.609 155.066 122.628C155.058 122.945 155.069 123.263 155.101 123.578C155.126 123.905 155.198 124.227 155.316 124.533C155.381 124.699 155.494 124.842 155.642 124.942C155.798 125.031 155.978 125.069 156.157 125.052C156.5 125.015 156.831 124.906 157.129 124.731H157.037C157.162 124.86 157.311 124.964 157.477 125.035C157.691 125.12 157.923 125.152 158.153 125.129C158.382 125.106 158.603 125.028 158.797 124.903C159.17 124.642 159.44 124.259 159.562 123.82L159.474 123.873C159.915 123.968 160.373 123.933 160.794 123.772C160.997 123.687 161.177 123.558 161.323 123.394C161.469 123.231 161.577 123.036 161.639 122.826C161.71 122.518 161.78 122.219 161.85 121.92L161.798 121.972C161.991 121.946 162.185 121.911 162.374 121.876L162.656 121.818L162.801 121.779C162.854 121.755 162.902 121.72 162.942 121.678C163.064 121.525 163.16 121.352 163.223 121.167C163.294 120.991 163.351 120.815 163.404 120.639C163.592 119.971 163.746 119.294 163.866 118.611V118.584L162.405 113.379C162.229 112.768 162.092 112.284 161.996 111.945C161.947 111.786 161.908 111.659 161.881 111.566C161.872 111.523 161.857 111.482 161.837 111.443C161.843 111.486 161.852 111.529 161.864 111.571C161.89 111.668 161.921 111.791 161.96 111.954C162.048 112.297 162.18 112.781 162.343 113.401C162.682 114.655 163.166 116.446 163.751 118.62V118.593C163.63 119.271 163.474 119.942 163.285 120.604C163.232 120.776 163.175 120.947 163.104 121.119C163.046 121.287 162.96 121.445 162.849 121.585C162.825 121.614 162.795 121.636 162.761 121.651L162.629 121.686L162.352 121.744C162.163 121.779 161.974 121.81 161.78 121.836C161.767 121.839 161.754 121.846 161.744 121.855C161.734 121.864 161.727 121.876 161.723 121.889C161.652 122.188 161.582 122.487 161.507 122.769C161.455 122.964 161.36 123.145 161.227 123.298C161.094 123.451 160.928 123.571 160.742 123.649C160.351 123.795 159.927 123.827 159.518 123.741C159.5 123.739 159.481 123.743 159.465 123.753C159.449 123.762 159.437 123.777 159.43 123.794C159.317 124.197 159.069 124.548 158.726 124.788C158.55 124.902 158.349 124.972 158.14 124.993C157.931 125.014 157.72 124.984 157.525 124.907C157.376 124.847 157.239 124.757 157.125 124.643C157.111 124.634 157.095 124.628 157.079 124.628C157.062 124.628 157.046 124.634 157.032 124.643C156.755 124.807 156.446 124.911 156.126 124.947C155.974 124.963 155.82 124.932 155.686 124.859C155.566 124.772 155.473 124.653 155.418 124.516C155.306 124.222 155.237 123.914 155.211 123.6C155.182 123.292 155.17 122.982 155.176 122.672H155.035C155.033 122.788 155.024 122.904 155.008 123.02C155.008 123.077 155.008 123.138 154.978 123.191C154.947 123.244 154.929 123.301 154.942 123.319C154.847 123.355 154.744 123.366 154.643 123.35C154.541 123.327 154.449 123.273 154.379 123.196C154.309 123.118 154.262 123.022 154.243 122.918C154.216 122.804 154.186 122.694 154.155 122.584C154.098 122.364 154.04 122.144 153.988 121.924C153.768 121.044 153.548 120.221 153.42 119.425C153.345 119.039 153.291 118.65 153.257 118.259C153.241 117.893 153.255 117.527 153.297 117.163C153.363 116.455 153.438 115.799 153.512 115.205C153.662 114.026 153.781 113.08 153.864 112.416C153.908 112.099 153.939 111.848 153.961 111.672C153.961 111.593 153.961 111.527 153.961 111.478C153.961 111.43 154.001 111.373 154.001 111.373Z" fill="#A56349" />
    <path d="M126.078 44.88C128.611 44.8848 131.087 44.1358 133.193 42.7284C133.193 42.7284 131.569 46.6884 126.087 46.3012L126.078 44.88Z" fill="#A56349" />
    <path opacity="0.3" d="M148.144 74.6724L149.679 74.4656L152.482 87.0628L152.328 89.87L153.327 94.6L153.661 102.485C153.661 102.485 149.882 90.6312 149.679 87.802C149.459 84.766 148.144 74.6548 148.144 74.6548" fill="black" />
    <path d="M79.4775 198.581C79.4775 198.581 79.9747 201.705 79.9571 202.25L82.1571 204.151L87.7715 202.897L88.2335 198.304L79.4775 198.581Z" fill="#F4C3AE" />
    <path d="M87.8861 202.206V202.708C87.8861 202.708 96.3737 205.999 96.4837 207.601L79.7109 207.715L79.9001 202.132C81.1475 202.718 82.5067 203.028 83.885 203.041C85.2632 203.054 86.628 202.769 87.8861 202.206Z" fill="#90CAF9" />
    <g opacity="0.6">
        <path d="M79.7197 207.715L79.7637 206.373L95.8237 206.752C95.8237 206.752 96.5717 207.073 96.4925 207.601L79.7197 207.715Z" fill="white" />
    </g>
    <path d="M87.9566 202.752C87.9566 202.836 87.543 202.875 87.1426 203.139C86.7422 203.403 86.531 203.755 86.4518 203.72C86.3726 203.685 86.4958 203.214 86.9886 202.902C87.4814 202.589 87.9742 202.677 87.9566 202.752Z" fill="#263238" />
    <path d="M89.7206 203.469C89.7206 203.548 89.3862 203.689 89.109 204.037C88.8318 204.384 88.757 204.754 88.669 204.75C88.581 204.745 88.5326 204.283 88.8846 203.87C89.2366 203.456 89.7162 203.39 89.7206 203.469Z" fill="#263238" />
    <path d="M90.7332 205.568C90.6584 205.568 90.544 205.176 90.7332 204.728C90.9224 204.279 91.3228 204.094 91.358 204.164C91.3932 204.235 91.1556 204.472 90.9928 204.846C90.83 205.22 90.8168 205.559 90.7332 205.568Z" fill="#263238" />
    <path d="M97.7422 198.581C97.7422 198.581 98.2394 201.705 98.2218 202.25L100.422 204.151L106.041 202.897L106.507 198.304L97.7422 198.581Z" fill="#F4C3AE" />
    <path d="M106.155 202.206V202.708C106.155 202.708 114.643 205.999 114.753 207.601L97.9756 207.715L98.1648 202.132C99.4129 202.718 100.773 203.028 102.152 203.041C103.531 203.054 104.896 202.769 106.155 202.206Z" fill="#90CAF9" />
    <g opacity="0.6">
        <path d="M97.9844 207.715L98.0328 206.373L114.093 206.752C114.093 206.752 114.841 207.073 114.762 207.601L97.9844 207.715Z" fill="white" />
    </g>
    <path d="M106.221 202.752C106.221 202.836 105.812 202.875 105.407 203.139C105.002 203.403 104.796 203.755 104.721 203.72C104.646 203.685 104.765 203.214 105.253 202.902C105.742 202.589 106.239 202.677 106.221 202.752Z" fill="#263238" />
    <path d="M107.985 203.469C107.985 203.548 107.651 203.689 107.374 204.037C107.096 204.384 107.022 204.754 106.934 204.75C106.846 204.745 106.797 204.283 107.149 203.87C107.501 203.456 107.985 203.39 107.985 203.469Z" fill="#263238" />
    <path d="M108.998 205.568C108.927 205.568 108.808 205.176 108.998 204.728C109.187 204.279 109.587 204.094 109.622 204.164C109.658 204.235 109.42 204.472 109.257 204.846C109.094 205.22 109.081 205.559 108.998 205.568Z" fill="#263238" />
    <path d="M111.853 120.256H74.9813L71.1709 137.716L78.7873 199.791H90.5793L93.2765 145.116L96.1145 199.791H108.756L114.066 138.402L111.853 120.256Z" fill="#263238" />
    <path d="M83.6665 198.924C83.6005 198.924 83.4421 187.981 83.3057 174.491C83.1693 161 83.1121 150.04 83.1605 150.04C83.2089 150.04 83.3849 160.974 83.5169 174.473C83.6489 187.972 83.7281 198.92 83.6665 198.924Z" fill="#455A64" />
    <path d="M102.547 198.713C102.543 198.667 102.543 198.622 102.547 198.576C102.547 198.475 102.569 198.343 102.586 198.176C102.626 197.811 102.679 197.296 102.754 196.64C102.903 195.32 103.106 193.38 103.334 190.995C103.563 188.61 103.774 185.768 104.008 182.604C104.241 179.441 104.382 175.965 104.487 172.313C104.593 168.661 104.606 165.172 104.584 162.004C104.562 158.836 104.474 155.984 104.377 153.591C104.28 151.197 104.188 149.257 104.109 147.919C104.078 147.264 104.052 146.749 104.03 146.379C104.03 146.212 104.03 146.08 104.03 145.979C104.027 145.933 104.027 145.888 104.03 145.842C104.044 145.887 104.051 145.932 104.052 145.979L104.091 146.375C104.118 146.744 104.162 147.255 104.214 147.915C104.32 149.235 104.439 151.188 104.553 153.582C104.668 155.976 104.76 158.831 104.808 162.004C104.857 165.176 104.808 168.661 104.729 172.317C104.65 175.974 104.443 179.458 104.232 182.622C104.021 185.786 103.761 188.628 103.51 191.013C103.26 193.398 103.035 195.325 102.855 196.654C102.762 197.305 102.696 197.815 102.644 198.18C102.644 198.348 102.6 198.48 102.586 198.581C102.578 198.626 102.565 198.67 102.547 198.713Z" fill="#455A64" />
    <path d="M91.9032 64.24L77.8232 65.0012L76.6748 70.3076C76.6748 70.3076 80.56 73.4272 80.9472 73.5548C81.3344 73.6824 90.1872 74.9188 90.1872 74.9188C90.1872 74.9188 99.7132 70.4792 99.5856 70.5188C99.458 70.5584 91.9032 64.24 91.9032 64.24Z" fill="#F4C3AE" />
    <path d="M79.64 39.666C78.8392 38.8344 77.484 38.9928 76.3488 39.226C75.68 39.3218 75.0291 39.516 74.4172 39.8024C74.1124 39.9495 73.8432 40.161 73.6282 40.4223C73.4132 40.6837 73.2575 40.9886 73.172 41.316C72.974 42.3236 73.6912 43.3224 73.5636 44.3432C73.4965 44.6986 73.3532 45.0352 73.1435 45.3299C72.9339 45.6246 72.6629 45.8704 72.3492 46.0504C71.7193 46.4076 71.0403 46.67 70.334 46.8292C70.6807 47.2671 71.1149 47.6278 71.6088 47.8884C72.1028 48.149 72.6457 48.3038 73.2028 48.3428C73.1368 48.708 72.6704 48.8136 72.3228 48.862C71.9752 48.9104 71.4868 49.1172 71.5396 49.4868C71.5908 49.6708 71.7104 49.8282 71.874 49.9268C73.8253 51.3879 76.2293 52.114 78.6632 51.9772C79.7984 51.9112 80.9996 51.6076 81.7432 50.7584C82.4868 49.9092 82.6232 48.8356 82.6232 47.7752C82.6022 46.3176 82.2707 44.8812 81.6508 43.5618C81.0309 42.2424 80.1369 41.0703 79.0284 40.1236" fill="#E0E0E0" />
    <path d="M79.02 40.194C78.8449 39.4685 78.8385 38.7125 79.0014 37.9841C79.1643 37.2557 79.4921 36.5745 79.9596 35.9927C80.4271 35.4108 81.0218 34.944 81.698 34.6281C82.3742 34.3122 83.1138 34.1556 83.86 34.1704C84.3807 34.2436 84.9108 34.2092 85.4176 34.0692C85.8381 33.8316 86.2147 33.5235 86.5308 33.1584C87.5604 32.2256 88.9948 31.9132 90.3632 31.6976C92.3124 31.3896 94.354 31.2136 96.2152 31.8604C98.0764 32.5072 99.7088 34.1792 99.7352 36.1504C99.7352 37.0304 99.458 37.8576 99.4096 38.72C99.3612 39.5824 99.6472 40.5724 100.43 40.92C100.936 41.1576 101.596 41.1136 101.957 41.5404C102.089 41.7368 102.157 41.9695 102.15 42.206C102.144 42.4426 102.064 42.6713 101.922 42.8604C101.618 43.2312 101.236 43.5314 100.804 43.7404C101.163 43.837 101.479 44.0487 101.705 44.3429C101.931 44.6372 102.053 44.9975 102.054 45.3684C102.041 45.739 101.945 46.1021 101.775 46.4315C101.604 46.7609 101.363 47.0485 101.068 47.2736C100.475 47.7181 99.7919 48.0275 99.0664 48.18C95.6652 49.0292 92.0528 48.1536 88.854 46.7236C85.3253 45.1383 82.1288 42.8988 79.4336 40.1236L79.7064 39.8112" fill="#E0E0E0" />
    <path d="M78.1484 41.8308C78.2584 41.5184 79.178 39.4108 79.508 39.4328C79.7412 39.4328 79.1956 41.404 79.3188 41.6064C80.5112 43.5204 80.8896 45.8524 80.7752 48.1052C80.6394 50.2925 80.2586 52.4576 79.64 54.56" fill="#E0E0E0" />
    <path d="M79.64 54.56C78.8491 52.527 78.2367 50.4291 77.8096 48.29L79.64 54.56Z" fill="#E0E0E0" />
    <path d="M86.0733 72.5604C84.4479 72.5726 82.8823 71.9483 81.7113 70.8209C80.5404 69.6936 79.8571 68.1527 79.8077 66.528L79.2005 46.2C78.8617 40.7396 81.7569 35.992 87.2217 35.8072H87.7277C90.1826 35.8686 92.5244 36.8521 94.2871 38.5618C96.0498 40.2715 97.1042 42.5821 97.2405 45.034C97.5089 49.7684 97.7421 55 97.6497 57.53C97.4561 62.7748 92.1937 63.4656 92.1937 63.4656C92.1937 63.4656 92.1937 64.68 92.2289 66.22C92.2441 67.0417 92.0964 67.8582 91.7944 68.6225C91.4925 69.3868 91.0422 70.0838 90.4695 70.6732C89.8969 71.2626 89.2132 71.7328 88.4579 72.0568C87.7026 72.3807 86.8907 72.5518 86.0689 72.5604H86.0733Z" fill="#F4C3AE" />
    <path d="M92.2023 63.5272C89.7782 63.4578 87.4249 62.6942 85.4219 61.3272C85.4219 61.3272 86.9927 65.1816 92.2375 64.8472L92.2023 63.5272Z" fill="#CC937F" />
    <path d="M88.5244 55.0528C88.6395 54.928 88.7813 54.8307 88.9391 54.7682C89.097 54.7056 89.2669 54.6794 89.4362 54.6915C89.6056 54.7036 89.77 54.7537 89.9174 54.838C90.0648 54.9224 90.1912 55.0388 90.2874 55.1787C90.3836 55.3186 90.4471 55.4784 90.4731 55.6462C90.4991 55.8139 90.487 55.9854 90.4377 56.1479C90.3884 56.3104 90.3031 56.4596 90.1882 56.5846C90.0733 56.7097 89.9318 56.8072 89.774 56.87C89.4814 56.9776 89.1616 56.9868 88.8632 56.8964C88.6334 56.8417 88.4269 56.7154 88.2736 56.5356C88.1804 56.3947 88.1239 56.2327 88.1093 56.0644C88.0947 55.8961 88.1224 55.7268 88.19 55.572C88.2917 55.3116 88.462 55.0835 88.6828 54.912" fill="#CC937F" />
    <path d="M95.9208 48.554C95.9185 48.7493 95.8399 48.936 95.7018 49.0742C95.5636 49.2123 95.3769 49.2909 95.1816 49.2932C95.086 49.2985 94.9902 49.2846 94.9 49.2524C94.8099 49.2201 94.7271 49.1701 94.6565 49.1053C94.586 49.0405 94.5291 48.9622 94.4893 48.8751C94.4495 48.788 94.4276 48.6937 94.4248 48.598C94.4282 48.403 94.5072 48.217 94.6451 48.0791C94.783 47.9412 94.969 47.8622 95.164 47.8588C95.2596 47.8535 95.3554 47.8674 95.4456 47.8996C95.5357 47.9319 95.6186 47.9819 95.6891 48.0467C95.7596 48.1115 95.8165 48.1898 95.8563 48.2769C95.8961 48.364 95.918 48.4583 95.9208 48.554Z" fill="#263238" />
    <path d="M96.0829 47.5904C95.9861 47.6828 95.4273 47.2516 94.6221 47.234C93.8169 47.2164 93.2141 47.6036 93.1305 47.5068C93.0469 47.41 93.1877 47.2868 93.4517 47.1064C93.8062 46.8728 94.2242 46.7545 94.6485 46.7676C95.0675 46.7761 95.4728 46.9179 95.8057 47.1724C96.0477 47.366 96.1269 47.5464 96.0829 47.5904Z" fill="#263238" />
    <path d="M88.3749 48.554C88.3715 48.7497 88.2919 48.9364 88.1531 49.0745C88.0142 49.2125 87.8271 49.2909 87.6313 49.2932C87.536 49.2979 87.4408 49.2836 87.3511 49.251C87.2614 49.2185 87.1791 49.1684 87.1091 49.1036C87.039 49.0389 86.9826 48.9608 86.943 48.874C86.9035 48.7872 86.8817 48.6934 86.8789 48.598C86.8812 48.4027 86.9598 48.216 87.0979 48.0778C87.2361 47.9397 87.4228 47.8611 87.6181 47.8588C87.7137 47.8535 87.8095 47.8674 87.8997 47.8996C87.9898 47.9319 88.0727 47.9819 88.1432 48.0467C88.2137 48.1115 88.2706 48.1898 88.3104 48.2769C88.3502 48.364 88.3721 48.4583 88.3749 48.554Z" fill="#263238" />
    <path d="M88.3221 47.5948C88.2297 47.6916 87.6709 47.256 86.8657 47.2384C86.0605 47.2208 85.4577 47.6124 85.3741 47.5112C85.2905 47.41 85.4269 47.2912 85.6909 47.1108C86.0456 46.8777 86.4635 46.7594 86.8877 46.772C87.3075 46.7834 87.7133 46.9249 88.0493 47.1768C88.2913 47.3748 88.3705 47.5508 88.3221 47.5948Z" fill="#263238" />
    <path d="M90.9131 53.6492C91.3422 53.5231 91.7859 53.4535 92.2331 53.4424C92.4399 53.4424 92.6379 53.3896 92.6731 53.2488C92.6968 53.0371 92.6538 52.8232 92.5499 52.6372L91.9603 51.04C91.1683 48.7916 90.6007 46.9392 90.6887 46.9084C90.7767 46.8776 91.4983 48.6684 92.2859 50.93C92.4795 51.4844 92.6599 52.0168 92.8315 52.5228C92.9575 52.7732 92.9888 53.0608 92.9195 53.3324C92.8882 53.4038 92.8411 53.4671 92.7816 53.5174C92.7221 53.5678 92.6519 53.6038 92.5763 53.6228C92.4616 53.6536 92.3429 53.667 92.2243 53.6624C91.7883 53.7113 91.348 53.7069 90.9131 53.6492Z" fill="#263238" />
    <path d="M88.5284 54.1464C88.6604 54.1464 88.6384 55.0264 89.3732 55.6556C90.108 56.2848 91.0408 56.2232 91.0452 56.3464C91.0452 56.3992 90.834 56.5092 90.4424 56.5136C89.9287 56.5064 89.4336 56.3196 89.0432 55.9856C88.6699 55.6655 88.4363 55.2125 88.392 54.7228C88.3656 54.3576 88.4668 54.142 88.5284 54.1464Z" fill="#263238" />
    <path d="M88.4405 44.44C88.3525 44.6556 87.5605 44.5324 86.6057 44.6248C85.6509 44.7172 84.8853 44.9548 84.7621 44.7568C84.7093 44.66 84.8457 44.4576 85.1625 44.2552C85.5775 43.9992 86.0487 43.8481 86.5353 43.8152C87.0198 43.7675 87.5087 43.837 87.9609 44.0176C88.2821 44.1672 88.4405 44.3432 88.4405 44.44Z" fill="#E0E0E0" />
    <path d="M95.819 45.32C95.6738 45.5004 95.1238 45.32 94.455 45.2716C93.7862 45.2232 93.2186 45.364 93.0954 45.1704C93.0382 45.078 93.1306 44.8976 93.3858 44.7304C93.7206 44.5287 94.1089 44.4335 94.499 44.4576C94.8922 44.4738 95.2706 44.6122 95.5814 44.8536C95.8102 45.0208 95.885 45.21 95.819 45.32Z" fill="#E0E0E0" />
    <path d="M79.5304 50.16C79.4424 50.1204 75.9532 49.0072 75.9796 52.5976C76.006 56.188 79.6052 55.418 79.6096 55.3124C79.614 55.2068 79.5304 50.16 79.5304 50.16Z" fill="#F4C3AE" />
    <path d="M78.5048 53.9528C78.5048 53.9528 78.4432 53.9968 78.3376 54.0452C78.1882 54.1063 78.0207 54.1063 77.8712 54.0452C77.4884 53.9132 77.1628 53.3104 77.1408 52.6636C77.1333 52.3613 77.1918 52.0609 77.3124 51.7836C77.3444 51.6708 77.4036 51.5676 77.485 51.4832C77.5663 51.3987 77.6673 51.3357 77.7788 51.2996C77.8502 51.2789 77.9267 51.2844 77.9944 51.315C78.0622 51.3457 78.1168 51.3995 78.1484 51.4668C78.1968 51.568 78.1748 51.6384 78.1924 51.6428C78.21 51.6472 78.2716 51.5856 78.2408 51.436C78.2169 51.348 78.1661 51.2695 78.0956 51.2116C78.0471 51.1733 77.9911 51.1457 77.9312 51.1306C77.8713 51.1154 77.8089 51.113 77.748 51.1236C77.6011 51.1545 77.4646 51.2225 77.3514 51.3211C77.2381 51.4196 77.152 51.5455 77.1012 51.6868C76.951 51.9976 76.88 52.3407 76.8944 52.6856C76.9208 53.4116 77.2948 54.0848 77.8184 54.23C77.9145 54.2572 78.0155 54.2622 78.1138 54.2447C78.2122 54.2271 78.3052 54.1875 78.386 54.1288C78.496 54.0408 78.518 53.9616 78.5048 53.9528Z" fill="#CC937F" />
    <path d="M94.9435 39.2656C95.5199 38.9356 93.6235 37.0084 92.1935 36.3836C90.0199 35.442 86.7155 34.8964 84.7355 35.5036C82.3507 36.2252 80.3839 37.4484 79.2179 39.6484C78.095 41.8864 77.5893 44.3834 77.7528 46.882C77.7836 47.6388 76.3448 48.0744 76.7628 48.7124C77.2688 49.4868 77.1499 49.1216 78.0167 50.1952C78.2587 50.4988 78.6371 50.842 78.8967 51.1324C79.5743 51.9112 81.2683 52.0652 81.6335 51.3832C82.3885 50.1074 82.8021 48.6588 82.8347 47.1768C82.8655 46.0768 82.8875 44.4092 82.5971 43.3488C82.488 42.9551 82.439 42.5471 82.4519 42.1388C82.4532 41.4684 82.6489 40.8127 83.0151 40.2512C83.1125 40.1322 83.22 40.0218 83.3363 39.9212C83.7646 39.5553 84.2811 39.308 84.8346 39.2038C85.3881 39.0996 85.9592 39.1421 86.4911 39.3272C88.5371 40.0048 90.1871 41.1224 92.5279 40.1192C92.9294 39.9007 93.2732 39.5901 93.5312 39.2128C93.7277 39.0389 93.9823 38.9451 94.2447 38.95C94.5071 38.9548 94.758 39.0581 94.9479 39.2392L94.9435 39.2656Z" fill="#E0E0E0" />
    <path d="M83.0193 40.0664C83.5984 39.7436 84.2367 39.541 84.896 39.4707C85.5553 39.4004 86.2219 39.4638 86.8561 39.6572C87.9253 39.9872 88.8493 40.6736 89.8789 41.1136C91.0357 41.5924 92.2978 41.7594 93.5392 41.598C94.7807 41.4367 95.9582 40.9525 96.9541 40.194C97.2442 40.0062 97.4917 39.7595 97.6804 39.4699C97.8691 39.1804 97.9949 38.8545 98.0497 38.5132C98.0518 38.2247 97.9893 37.9394 97.8667 37.6782C97.7441 37.4171 97.5646 37.1867 97.3413 37.004C96.8923 36.6442 96.3785 36.3739 95.8277 36.2076C93.3026 35.3919 90.6199 35.1868 88.0001 35.6092C85.8925 35.9084 83.7409 36.564 82.2229 38.0468C82.0143 38.2341 81.8478 38.4636 81.7345 38.72C81.6773 38.8524 81.6554 38.9974 81.6708 39.1408C81.6862 39.2842 81.7385 39.4212 81.8225 39.5384C81.9124 39.6502 82.0426 39.722 82.1851 39.7385C82.3275 39.755 82.4707 39.7147 82.5837 39.6264" fill="#E0E0E0" />
    <path d="M97.0384 48.3384C97.0384 48.4 96.8448 48.4748 96.5984 48.554C96.352 48.6332 96.1584 48.6992 96.1188 48.6464C96.0792 48.5936 96.2552 48.4308 96.5236 48.3384C96.792 48.246 97.034 48.2768 97.0384 48.3384Z" fill="#CC937F" />
    <path d="M97.3464 48.906C97.3464 48.9676 97.078 48.9808 96.77 48.9852C96.462 48.9896 96.2024 48.9852 96.1936 48.906C96.1848 48.8268 96.44 48.752 96.77 48.752C97.1 48.752 97.3552 48.84 97.3464 48.906Z" fill="#CC937F" />
    <path d="M84.8457 48.576C84.8457 48.642 84.4893 48.6552 84.0581 48.6552C83.6269 48.6552 83.2749 48.6552 83.2705 48.576C83.2661 48.4968 83.6137 48.422 84.0581 48.4264C84.5025 48.4308 84.8545 48.5144 84.8457 48.576Z" fill="#CC937F" />
    <path d="M84.8014 49.302C84.8014 49.368 84.4846 49.3592 84.115 49.3592C83.7454 49.3592 83.4462 49.3592 83.433 49.3064C83.4198 49.2536 83.7234 49.1304 84.115 49.1304C84.5066 49.1304 84.8146 49.2448 84.8014 49.302Z" fill="#CC937F" />
    <path d="M88.1147 50.4768C88.1147 50.4768 88.0135 50.6396 87.7539 50.7848C87.4114 50.9675 87.0228 51.0456 86.6363 51.0092C86.2477 50.9682 85.8794 50.8154 85.5759 50.5692C85.3515 50.3756 85.2635 50.2128 85.2855 50.1952C85.6936 50.4887 86.163 50.6858 86.6583 50.7716C87.1595 50.7813 87.6567 50.6807 88.1147 50.4768Z" fill="#CC937F" />
    <path d="M88.4797 50.3008C88.5061 50.358 88.1233 50.556 87.5997 50.556C87.4437 50.5752 87.2855 50.5629 87.1343 50.5198C86.9832 50.4767 86.8422 50.4037 86.7197 50.3052C86.7197 50.2436 87.1245 50.3316 87.5997 50.3052C88.0749 50.2788 88.4401 50.2392 88.4797 50.3008Z" fill="#CC937F" />
    <path d="M96.2728 49.7992C95.8837 50.0462 95.4414 50.1974 94.9825 50.2402C94.5235 50.283 94.061 50.2163 93.6328 50.0456C93.6328 49.9796 94.2312 50.0808 94.9528 50.0104C95.6744 49.94 96.2464 49.72 96.2728 49.7992Z" fill="#CC937F" />
    <path d="M95.8809 50.0764C95.5846 50.4065 95.187 50.6289 94.7505 50.7085C94.3141 50.7882 93.8636 50.7206 93.4697 50.5164C93.8834 50.5359 94.298 50.527 94.7105 50.49C95.1093 50.3778 95.5002 50.2397 95.8809 50.0764Z" fill="#CC937F" />
    <path d="M94.2085 43.6832C93.917 43.8 93.6103 43.8741 93.2977 43.9032C92.5536 44.0132 91.8008 44.053 91.0493 44.022C90.2977 43.9926 89.5506 43.8909 88.8185 43.7184C88.5112 43.6705 88.2139 43.5724 87.9385 43.428C87.9385 43.3576 89.3289 43.7316 91.0669 43.7932C92.8049 43.8548 94.1953 43.6128 94.2085 43.6832Z" fill="#CC937F" />
    <path d="M94.7543 43.054C92.833 43.4235 90.8588 43.4235 88.9375 43.054C88.9375 42.988 90.2575 43.1112 91.8459 43.1112C93.4343 43.1112 94.7455 42.988 94.7543 43.054Z" fill="#CC937F" />
    <path d="M90.6626 45.6544C90.5966 45.6544 90.579 45.4872 90.5702 45.3068C90.5614 45.1264 90.5702 44.968 90.6362 44.9504C90.7022 44.9328 90.7946 45.0868 90.799 45.298C90.8034 45.5092 90.7198 45.672 90.6626 45.6544Z" fill="#CC937F" />
    <path d="M91.7671 45.7996C91.7451 45.8568 91.4899 45.7996 91.3843 45.5004C91.2787 45.2012 91.4063 44.99 91.4635 45.0208C91.5207 45.0516 91.5163 45.2232 91.5955 45.4168C91.6747 45.6104 91.7979 45.76 91.7671 45.7996Z" fill="#CC937F" />
    <path d="M88.4099 53.9176C88.4099 53.9836 88.1547 54.0232 87.9303 54.2124C87.7059 54.4016 87.6047 54.6524 87.5431 54.6172C87.4815 54.582 87.4815 54.2784 87.7851 54.032C88.0887 53.7856 88.4407 53.856 88.4099 53.9176Z" fill="#CC937F" />
    <path d="M87.468 53.8516C87.468 53.9132 87.3184 53.9484 87.2172 54.0716C87.116 54.1948 87.0896 54.3268 87.028 54.3488C86.9664 54.3708 86.9576 54.318 86.9444 54.23C86.9374 54.1744 86.9428 54.1179 86.9603 54.0646C86.9778 54.0113 87.0069 53.9626 87.0456 53.922C87.0815 53.8785 87.1265 53.8433 87.1774 53.819C87.2283 53.7947 87.2839 53.7818 87.3404 53.7812C87.4284 53.7812 87.4724 53.8208 87.468 53.8516Z" fill="#CC937F" />
    <path d="M84.0621 67.8964C84.0621 67.8964 83.9566 67.8964 83.8158 67.7732C83.6288 67.6011 83.5075 67.3693 83.4726 67.1176C83.416 66.7545 83.4309 66.3838 83.5165 66.0264C83.6265 65.6261 83.6265 65.2035 83.5165 64.8032C83.4417 64.6096 83.2966 64.4292 83.2086 64.2004C83.1357 63.9789 83.1357 63.7399 83.2086 63.5184C83.2581 63.3534 83.2581 63.1774 83.2086 63.0124C83.1496 62.8665 83.0743 62.7278 82.9842 62.5988C82.9056 62.4963 82.852 62.377 82.8275 62.2502C82.8031 62.1234 82.8085 61.9927 82.8434 61.8684C82.9182 61.6836 83.0413 61.6616 83.0413 61.6748C83.0413 61.688 82.9622 61.7408 82.927 61.8904C82.9143 62.0016 82.925 62.1142 82.9584 62.221C82.9917 62.3278 83.0469 62.4265 83.1206 62.5108C83.2276 62.646 83.3178 62.7937 83.389 62.9508C83.4504 63.1515 83.4504 63.3661 83.389 63.5668C83.3292 63.7468 83.3292 63.9412 83.389 64.1212C83.4594 64.306 83.6002 64.482 83.6969 64.7196C83.827 65.159 83.827 65.6266 83.6969 66.066C83.6072 66.3998 83.576 66.7467 83.6045 67.0912C83.6247 67.3175 83.7103 67.5331 83.851 67.7116C83.9874 67.8348 84.0709 67.8788 84.0621 67.8964Z" fill="#CC937F" />
    <path d="M86.3417 68.332C86.3417 68.332 86.2273 68.332 86.0689 68.2396C85.861 68.0746 85.7077 67.8507 85.6289 67.5972C85.346 66.8126 85.1484 65.9997 85.0393 65.1728C85.0168 64.933 85.0095 64.692 85.0173 64.4512C85.0322 64.2388 85.0322 64.0256 85.0173 63.8132C85.0173 63.4172 84.6213 63.2808 84.3705 63.052C84.2473 62.949 84.1646 62.8055 84.1373 62.6472C84.1303 62.585 84.1378 62.5221 84.1591 62.4633C84.1805 62.4045 84.2152 62.3515 84.2605 62.3084C84.4233 62.1632 84.5597 62.2512 84.5421 62.26C84.5245 62.2688 84.4277 62.26 84.3265 62.37C84.2979 62.4053 84.2771 62.4464 84.2657 62.4904C84.2543 62.5344 84.2526 62.5804 84.2605 62.6252C84.298 62.7469 84.3736 62.8533 84.4761 62.9288C84.5905 63.0256 84.7445 63.1004 84.9161 63.2192C85.006 63.2869 85.0811 63.3721 85.1371 63.4696C85.1931 63.5672 85.2287 63.6751 85.2417 63.7868C85.2594 64.0109 85.2594 64.2359 85.2417 64.46C85.2376 64.6906 85.2464 64.9212 85.2681 65.1508C85.3794 65.9605 85.5515 66.7606 85.7829 67.5444C85.8371 67.7777 85.9508 67.9929 86.1129 68.1692C86.2405 68.288 86.3461 68.3144 86.3417 68.332Z" fill="#CC937F" />
    <path d="M87.3496 33.5016C87.4124 33.458 87.4804 33.4226 87.552 33.396C87.6899 33.3285 87.8923 33.2449 88.1592 33.1452C88.9168 32.8745 89.7042 32.6958 90.5044 32.6128C91.695 32.4831 92.8991 32.559 94.064 32.8372C94.7598 32.9886 95.4297 33.2405 96.0528 33.5852C96.7466 33.9425 97.311 34.508 97.6669 35.2025C98.0228 35.8969 98.1523 36.6854 98.0372 37.4572C97.9517 38.172 97.7017 38.8572 97.3068 39.4592C96.945 39.9937 96.4723 40.4439 95.9208 40.7792C95.4457 41.0805 94.926 41.3047 94.3808 41.4436C93.5992 41.6498 92.7859 41.708 91.9828 41.6152C91.7653 41.5905 91.5494 41.5538 91.336 41.5052C91.26 41.4935 91.1859 41.4713 91.116 41.4392C91.116 41.4392 91.4284 41.4876 91.996 41.5272C92.787 41.5809 93.5814 41.5005 94.3456 41.2896C94.8695 41.1431 95.3681 40.9176 95.824 40.6208C96.3506 40.2879 96.8006 39.847 97.144 39.3272C97.514 38.749 97.7486 38.0947 97.8304 37.4132C97.9346 36.6853 97.8102 35.9431 97.4744 35.2889C97.1387 34.6347 96.6081 34.1009 95.956 33.7612C95.3513 33.426 94.7026 33.1772 94.0288 33.022C92.8858 32.7389 91.7034 32.6496 90.5308 32.758C89.74 32.821 88.9582 32.9685 88.1988 33.198C87.6488 33.4004 87.3584 33.5236 87.3496 33.5016Z" fill="white" />
    <path d="M99.5812 35.8248C99.6706 36.11 99.6812 36.414 99.612 36.7048C99.4768 37.4144 99.1548 38.0751 98.6792 38.6188C98.2124 39.1547 97.6717 39.6214 97.0732 40.0048C96.8438 40.1876 96.5888 40.3359 96.3164 40.4448C96.5142 40.2308 96.7373 40.0416 96.9808 39.8816C97.5338 39.4641 98.0452 38.994 98.5076 38.478C98.952 37.9557 99.2711 37.3386 99.4404 36.674C99.5768 36.1636 99.5416 35.8292 99.5812 35.8248Z" fill="white" />
    <path d="M86.2404 36.4584C85.2479 36.7765 84.3001 37.2201 83.42 37.7784C82.7248 38.28 82.1 38.7992 81.902 39.3096C81.7955 39.59 81.7651 39.8936 81.814 40.1896C81.814 40.1896 81.7436 40.1236 81.704 39.9608C81.6507 39.7268 81.666 39.4824 81.748 39.2568C81.946 38.6628 82.5752 38.1084 83.288 37.5936C83.9232 37.1632 84.6227 36.8365 85.3604 36.6256C85.6413 36.5176 85.9394 36.461 86.2404 36.4584Z" fill="white" />
    <path d="M82.7866 35.7324C82.7866 35.7588 82.5974 35.926 82.2718 36.1944C81.8395 36.5269 81.4649 36.9283 81.163 37.3824C80.8737 37.8348 80.7408 38.3696 80.7846 38.9048C80.8254 39.1275 80.8783 39.3478 80.943 39.5648C80.943 39.5648 80.7186 39.3756 80.6262 38.9312C80.5278 38.3511 80.6485 37.7552 80.965 37.2592C81.2835 36.7876 81.6953 36.3863 82.175 36.08C82.3547 35.926 82.5623 35.808 82.7866 35.7324Z" fill="white" />
    <path d="M75.6318 42.2048C75.7082 41.9371 75.8469 41.6913 76.0366 41.4876C76.455 40.9583 77.0028 40.5458 77.6271 40.2899C78.2514 40.0341 78.9311 39.9434 79.6006 40.0268C79.8794 40.0372 80.1513 40.1158 80.3926 40.2556C80.3926 40.2908 80.0802 40.2116 79.5874 40.1896C78.9475 40.152 78.3072 40.2586 77.714 40.5016C77.1207 40.7445 76.5896 41.1175 76.1598 41.5932C75.8254 41.954 75.6802 42.24 75.6318 42.2048Z" fill="white" />
    <path d="M78.2504 44.066C78.1334 43.8761 78.0767 43.6552 78.0876 43.4324C78.0622 42.8934 78.219 42.3616 78.5327 41.9226C78.8464 41.4836 79.2987 41.163 79.8168 41.0124C80.0236 40.929 80.2512 40.9121 80.468 40.964C80.2723 41.0422 80.0726 41.1097 79.8696 41.1664C79.4063 41.3423 79.0054 41.6513 78.7173 42.0545C78.4292 42.4577 78.2668 42.9371 78.2504 43.4324C78.2614 43.6435 78.2614 43.8549 78.2504 44.066Z" fill="white" />
    <path d="M100.998 43.8548C100.743 43.9381 100.47 43.9473 100.21 43.8812C99.568 43.7816 98.9763 43.4742 98.5256 43.0061C98.075 42.538 97.7903 41.935 97.7152 41.2896C97.6608 41.0286 97.6791 40.7577 97.768 40.5064C97.8076 40.5064 97.768 40.8056 97.8736 41.2632C97.9865 41.8589 98.2705 42.4087 98.691 42.8455C99.1114 43.2823 99.6499 43.5872 100.241 43.7228C100.698 43.8328 100.993 43.8196 100.998 43.8548Z" fill="white" />
    <path d="M100.936 45.4652C100.274 45.6327 99.5764 45.6037 98.9299 45.3816C98.2578 45.234 97.645 44.8893 97.1699 44.3916C97.7549 44.6882 98.3591 44.9455 98.9783 45.1616C99.6243 45.3021 100.278 45.4035 100.936 45.4652Z" fill="white" />
    <path d="M95.1729 64.196C95.7317 64.196 101.667 63.404 105.293 65.7932C108.918 68.1824 118.669 86.68 118.669 86.68C118.669 86.68 121.643 96.5228 117.463 98.472C113.283 100.421 102.235 106.366 102.235 106.366L99.542 96.6152L107.158 93.0952V83.6924L95.1729 64.196Z" fill="#455A64" />
    <path d="M107.158 84.502L111.255 84.7264C112.364 84.7878 113.446 85.091 114.426 85.6146C115.406 86.1383 116.259 86.8698 116.926 87.758L119.566 91.3044C119.566 91.3044 120.979 93.1392 120.565 93.9444C120.226 94.6044 119.557 94.5516 118.911 93.9708C118.264 93.39 116.2 90.3584 116.2 90.3584C116.2 90.3584 120.002 95.2248 119.135 96.1224C118.268 97.02 117.296 95.8408 117.296 95.8408C117.296 95.8408 117.877 97.7152 116.715 97.5216C115.553 97.328 114.159 95.5856 114.159 95.5856C114.159 95.5856 114.33 96.6812 113.279 96.5536C112.227 96.426 109.213 91.7752 108.953 91.7752C108.694 91.7752 107.343 91.6476 107.343 91.6476L107.158 84.502Z" fill="#CE947A" />
    <path d="M114.638 88.814C115.212 89.3249 115.735 89.8908 116.2 90.5036C116.721 91.068 117.185 91.6826 117.586 92.3384C117.011 91.8275 116.488 91.2616 116.024 90.6488C115.503 90.0835 115.039 89.469 114.638 88.814Z" fill="#A56349" />
    <path d="M113.433 90.8116C113.666 91.0434 113.876 91.2985 114.057 91.5728C114.423 92.0612 114.937 92.73 115.501 93.4604C116.064 94.1908 116.601 94.842 116.983 95.3172C117.21 95.5576 117.408 95.8233 117.573 96.1092C117.309 95.9092 117.07 95.6788 116.86 95.4228C116.447 94.9828 115.892 94.336 115.32 93.6012C114.748 92.8664 114.26 92.18 113.925 91.6696C113.725 91.4061 113.559 91.1177 113.433 90.8116Z" fill="#A56349" />
    <path d="M112.042 92.884C112.547 93.22 112.978 93.6557 113.309 94.1644C113.705 94.6267 114.005 95.1638 114.189 95.744C114.132 95.7748 113.727 95.084 113.138 94.3008C112.749 93.8474 112.383 93.3745 112.042 92.884Z" fill="#A56349" />
    <path d="M104.531 73.8408C104.491 73.8408 104.557 73.348 104.531 72.5604C104.49 71.5392 104.288 70.531 103.933 69.5728C103.571 68.6175 103.058 67.7262 102.415 66.9328C101.917 66.3256 101.535 66 101.574 65.9692C101.614 65.9384 101.684 66.0264 101.856 66.1672C102.099 66.3699 102.327 66.5905 102.538 66.8272C103.232 67.6105 103.778 68.5141 104.148 69.4936C104.52 70.4775 104.705 71.522 104.694 72.5736C104.691 72.889 104.664 73.2037 104.615 73.5152C104.605 73.6276 104.577 73.7377 104.531 73.8408Z" fill="#263238" />
    <path d="M78.7871 70.6288C78.7871 70.6288 84.1507 73.7088 88.2207 72.8288C90.8155 72.1814 93.2061 70.8924 95.1727 69.08L102.371 85.558L98.1075 118.558L85.2463 120.234L80.9827 88.9284L78.7871 70.6288Z" fill="#FAFAFA" />
    <path d="M78.3865 64.812L75.5925 65.7932L70.4269 99.4884C70.4269 99.4884 66.4405 113.52 66.7881 119.583C67.1357 125.646 70.4005 144.426 70.4005 144.426L93.9669 141.944L92.9901 105.072C92.9901 105.072 94.6885 94.4592 89.6549 88.0352C84.6213 81.6112 78.3865 64.812 78.3865 64.812Z" fill="#455A64" />
    <path d="M91.9033 64.0684C92.2289 64.5348 97.3813 84.1148 96.8269 88.2376C96.2725 92.3604 93.2717 100.998 93.2717 100.998V141.821L114.066 139.92C114.066 139.92 115.769 125.017 114.066 117.88C112.363 110.744 109.882 102.291 109.882 102.291L108.241 77.374L97.7773 64.0684H91.9033Z" fill="#455A64" />
    <path d="M115.078 130.803C115.036 130.788 114.996 130.767 114.959 130.742L114.625 130.539C114.326 130.359 113.894 130.099 113.305 129.791C112.605 129.418 111.848 129.163 111.065 129.039C110.579 128.973 110.084 128.992 109.604 129.096C109.071 129.234 108.561 129.45 108.091 129.738C107.594 130.038 107.101 130.403 106.586 130.786L104.976 131.974C103.862 132.788 102.683 133.672 101.416 134.583C100.775 135.079 100.018 135.405 99.2161 135.529C98.3647 135.552 97.521 135.363 96.7609 134.979C95.2165 134.279 93.6193 133.584 91.9517 132.928C91.1157 132.603 90.2929 132.277 89.4701 132.009C88.6709 131.725 87.8279 131.583 86.9797 131.591C86.1651 131.637 85.3772 131.898 84.6961 132.348C84.038 132.781 83.4287 133.284 82.8789 133.848C81.7745 134.922 80.7669 136.048 79.5173 136.721C79.3665 136.807 79.209 136.881 79.0465 136.941C78.8922 137.016 78.7298 137.074 78.5625 137.113C78.245 137.218 77.9152 137.282 77.5813 137.302C76.9615 137.339 76.3395 137.3 75.7289 137.188C73.898 136.84 72.1221 136.248 70.4489 135.428C69.8505 135.155 69.3929 134.926 69.0849 134.772L68.7329 134.596C68.6537 134.552 68.6141 134.53 68.6185 134.526L68.7461 134.574L69.1025 134.732L70.4841 135.348C72.1657 136.131 73.9399 136.698 75.7641 137.034C76.3636 137.14 76.9739 137.172 77.5813 137.13C77.902 137.108 78.2185 137.045 78.5229 136.941C78.675 136.901 78.8225 136.845 78.9629 136.774C79.1139 136.711 79.2609 136.639 79.4029 136.558C80.6085 135.907 81.6029 134.798 82.7073 133.703C83.2659 133.124 83.8855 132.608 84.5553 132.163C85.2673 131.695 86.0896 131.422 86.9401 131.371C87.8173 131.365 88.6885 131.514 89.5141 131.811C90.3501 132.088 91.1729 132.414 92.0089 132.735C93.6765 133.39 95.2869 134.094 96.8225 134.794C97.5474 135.165 98.3535 135.35 99.1677 135.331C99.938 135.223 100.668 134.92 101.288 134.451L104.857 131.864L106.472 130.689C106.964 130.315 107.475 129.967 108.003 129.646C108.486 129.35 109.013 129.131 109.565 128.999C110.061 128.895 110.572 128.88 111.074 128.955C111.87 129.089 112.637 129.36 113.34 129.756C113.785 129.996 114.217 130.259 114.634 130.544L114.959 130.764C115.043 130.772 115.082 130.799 115.078 130.803Z" fill="#FAFAFA" />
    <path d="M87.063 99.4796C87.1774 99.44 90.7634 97.4776 91.6698 97.3632C92.5762 97.2488 99.625 96.9232 99.625 96.9232L101.508 103.748C101.508 103.748 95.6342 106.594 94.7278 106.828C93.8214 107.061 89.9714 108.451 89.329 108.451C88.6866 108.451 86.8738 107.844 86.8738 107.43C86.8653 107.321 86.8852 107.211 86.9314 107.112C86.9776 107.013 87.0487 106.927 87.1378 106.863C87.9591 106.893 88.7814 106.842 89.593 106.713C90.0181 106.562 90.4339 106.386 90.8382 106.185C90.8382 106.185 84.3834 107.166 83.9302 107.012C83.477 106.858 83.1382 105.917 83.1382 105.917C83.1382 105.917 82.3814 105.389 82.3066 104.9C82.2318 104.412 82.4958 104.183 82.9094 103.994C83.323 103.805 86.117 102.56 86.9486 102.331C87.7802 102.102 89.9714 101.728 89.9714 101.728C89.9714 101.728 83.323 102.445 82.9314 102.256C82.5398 102.067 82.0514 101.35 82.7422 100.936C83.5676 100.406 84.4721 100.011 85.4218 99.7656C86.1566 99.6292 87.063 99.4796 87.063 99.4796Z" fill="#F4C3AE" />
    <path d="M91.7889 103.541C91.3923 103.753 90.975 103.924 90.5437 104.051C89.7605 104.328 88.6649 104.672 87.4329 104.984C86.2009 105.296 85.0745 105.508 84.2561 105.635C83.8141 105.725 83.3649 105.773 82.9141 105.78C83.3455 105.645 83.7868 105.543 84.2341 105.477C85.0437 105.31 86.1613 105.068 87.3889 104.76C88.6165 104.452 89.7077 104.135 90.5041 103.88C90.9235 103.736 91.3529 103.622 91.7889 103.541Z" fill="#CC937F" />
    <path d="M91.1686 98.4588C90.5226 98.7209 89.8498 98.9113 89.1622 99.0264C88.4919 99.2156 87.8028 99.3307 87.1074 99.3696C87.7534 99.1075 88.4262 98.9171 89.1138 98.802C89.7843 98.6134 90.4733 98.4984 91.1686 98.4588Z" fill="#CC937F" />
    <path d="M99.7664 99.6336C99.6781 99.6531 99.5883 99.6648 99.498 99.6688C99.2617 99.7247 99.0348 99.8152 98.8248 99.9372C98.4974 100.146 98.1214 100.266 97.7336 100.285C97.2936 100.258 96.8536 100.012 96.5016 100.311C96.3257 100.478 96.1325 100.625 95.9252 100.751C95.7026 100.844 95.4572 100.867 95.2212 100.817C94.7812 100.729 94.4556 100.562 94.152 100.544C93.9205 100.518 93.6878 100.584 93.5052 100.729C93.382 100.839 93.3556 100.94 93.338 100.932C93.3204 100.923 93.338 100.817 93.4392 100.668C93.5314 100.57 93.6437 100.494 93.7684 100.445C93.893 100.395 94.027 100.374 94.1608 100.382C94.5289 100.434 94.8933 100.509 95.252 100.606C95.446 100.643 95.6467 100.622 95.8284 100.544C96.0199 100.422 96.2009 100.283 96.3696 100.131C96.4751 100.047 96.5986 99.988 96.7304 99.9592C96.8571 99.9372 96.9866 99.9372 97.1132 99.9592C97.3508 99.9944 97.5532 100.065 97.7468 100.078C98.1003 100.065 98.4457 99.969 98.7544 99.7964C98.9833 99.6788 99.2329 99.6071 99.4892 99.5852C99.674 99.5764 99.7708 99.6204 99.7664 99.6336Z" fill="#CC937F" />
    <path d="M99.8367 101.033C99.6495 101.28 99.3844 101.457 99.0843 101.534C98.7669 101.646 98.4277 101.68 98.0943 101.636C97.918 101.598 97.7376 101.583 97.5575 101.592C97.472 101.607 97.391 101.641 97.3208 101.692C97.2507 101.743 97.1931 101.81 97.1527 101.886C97.0303 102.082 96.8413 102.228 96.6203 102.296C96.4188 102.339 96.2102 102.339 96.0087 102.296C95.7032 102.218 95.3907 102.171 95.0759 102.155C94.8742 102.161 94.6817 102.241 94.5347 102.379C94.4379 102.485 94.4159 102.568 94.3939 102.564C94.3719 102.56 94.3719 102.467 94.4643 102.326C94.5353 102.232 94.6252 102.154 94.7283 102.096C94.8313 102.039 94.9452 102.003 95.0627 101.992C95.3911 101.983 95.7193 102.015 96.0395 102.089C96.2126 102.129 96.3939 102.117 96.5597 102.052C96.7254 101.988 96.8677 101.875 96.9679 101.728C97.0332 101.635 97.1101 101.551 97.1967 101.477C97.2945 101.404 97.4099 101.359 97.5311 101.345C97.7308 101.338 97.9306 101.357 98.1251 101.402C98.4298 101.454 98.742 101.439 99.0403 101.358C99.3133 101.269 99.5795 101.16 99.8367 101.033Z" fill="#CC937F" />
    <path d="M80.1116 103.963C79.9519 103.991 79.7893 103.999 79.6276 103.985C79.4367 103.986 79.2457 103.977 79.0556 103.959C78.8356 103.937 78.5804 103.924 78.3032 103.875C77.6528 103.773 77.0103 103.626 76.3804 103.435C75.6098 103.197 74.8546 102.912 74.1188 102.582C72.7934 101.97 71.5205 101.25 70.3128 100.43C69.8464 100.118 69.4812 99.858 69.2304 99.6688C69.0932 99.5807 68.9676 99.4757 68.8564 99.3564C69.0132 99.4152 69.1613 99.4952 69.2964 99.594L70.4008 100.32C71.6261 101.096 72.9004 101.791 74.2156 102.401C74.9414 102.734 75.6846 103.028 76.442 103.281C77.0606 103.477 77.6911 103.633 78.3296 103.748C79.4208 103.91 80.116 103.919 80.1116 103.963Z" fill="#263238" />
    <path d="M84.652 109.806C84.4033 109.777 84.1575 109.727 83.9172 109.657C83.6296 109.597 83.346 109.519 83.068 109.424C82.738 109.322 82.3596 109.217 81.9592 109.058C81.0069 108.709 80.0768 108.302 79.174 107.84C78.0743 107.263 77.0078 106.626 75.9796 105.93C74.1231 104.647 72.3762 103.212 70.7568 101.64C70.1364 101.042 69.648 100.54 69.3224 100.184C69.1449 100.008 68.9816 99.8177 68.834 99.616C69.0319 99.7682 69.2172 99.9359 69.3884 100.118C69.7316 100.456 70.2376 100.94 70.8712 101.521C72.5124 103.051 74.2623 104.46 76.1072 105.736C77.1283 106.427 78.1843 107.064 79.2708 107.646C80.1614 108.116 81.0781 108.535 82.0164 108.9C82.4124 109.067 82.782 109.186 83.1032 109.3C83.4244 109.415 83.706 109.503 83.9392 109.569C84.1822 109.631 84.4205 109.71 84.652 109.806Z" fill="#263238" />
    <path d="M109.209 92.0744C108.769 92.3382 108.31 92.5691 107.836 92.7652C106.956 93.1656 105.772 93.7024 104.439 94.27C103.106 94.8376 101.892 95.3348 101.003 95.6692C100.563 95.8364 100.193 95.9684 99.9424 96.052C99.8153 96.1081 99.6802 96.1437 99.542 96.1576C99.9934 95.9136 100.461 95.7004 100.941 95.5196L104.351 94.0588L107.77 92.6156C108.235 92.399 108.716 92.2181 109.209 92.0744Z" fill="#263238" />
    <path d="M100.373 73.612C100.373 73.612 100.435 73.6604 100.531 73.766L100.945 74.2368C101.306 74.6372 101.825 75.2092 102.529 75.8912C103.233 76.5732 104.047 77.3696 104.94 78.2936C105.925 79.2874 106.793 80.3901 107.527 81.5804C108.246 82.7963 108.717 84.142 108.913 85.5404C109.081 86.8208 109.133 87.9736 109.177 88.9416C109.221 89.9096 109.23 90.7016 109.235 91.2384C109.235 91.4892 109.235 91.6784 109.235 91.8632C109.24 91.9372 109.232 92.0116 109.213 92.0832C109.195 92.0111 109.187 91.9373 109.186 91.8632C109.186 91.696 109.173 91.4892 109.147 91.2428C109.116 90.6664 109.072 89.892 109.019 88.9504C108.966 88.0088 108.887 86.834 108.707 85.5712C108.503 84.2069 108.037 82.8949 107.334 81.708C106.61 80.5316 105.757 79.4396 104.791 78.452C103.911 77.5192 103.083 76.7184 102.415 76.0144C101.746 75.3104 101.222 74.7208 100.879 74.3028L100.501 73.8056C100.45 73.747 100.407 73.6819 100.373 73.612Z" fill="#263238" />
    <path d="M117.04 98.6568C116.831 98.8003 116.612 98.9296 116.385 99.044L114.554 100.038C113.006 100.866 110.858 101.996 108.482 103.228C106.04 104.5 103.832 105.631 102.265 106.418L102.177 106.467L102.151 106.37C101.948 105.582 101.781 104.931 101.658 104.438C101.588 104.207 101.536 103.97 101.504 103.73C101.603 103.952 101.682 104.181 101.742 104.416C101.882 104.905 102.076 105.547 102.305 106.33L102.19 106.278C103.739 105.45 105.935 104.293 108.377 103.026C110.819 101.759 112.913 100.685 114.48 99.8932L116.341 98.9648C116.565 98.8422 116.799 98.7391 117.04 98.6568Z" fill="#263238" />
    <path d="M93.8565 107.118C93.8671 107.237 93.8671 107.356 93.8565 107.474C93.8565 107.725 93.8125 108.064 93.7773 108.486C93.6937 109.366 93.6321 110.638 93.5529 112.213C93.4121 115.359 93.3725 119.693 93.4473 124.533C93.5221 129.373 93.6717 133.698 93.7993 136.853C93.8609 138.411 93.9137 139.682 93.9489 140.584C93.9489 141.024 93.9753 141.35 93.9841 141.601C93.9957 141.719 93.9957 141.839 93.9841 141.957C93.9595 141.841 93.9448 141.724 93.9401 141.605C93.9401 141.35 93.8917 141.016 93.8609 140.593C93.7993 139.713 93.7201 138.437 93.6365 136.862C93.4693 133.712 93.2889 129.356 93.2185 124.542C93.1481 119.728 93.2185 115.368 93.3901 112.222C93.4913 110.647 93.5749 109.371 93.6893 108.495C93.7377 108.055 93.7773 107.738 93.8081 107.488C93.813 107.363 93.8292 107.239 93.8565 107.118Z" fill="#263238" />
    <path d="M75.5924 65.7932C75.5924 65.7932 67.8176 69.1108 65.4196 74.3688C63.0216 79.6268 58.1024 96.3204 57.988 99.4048C57.8736 102.489 63.5892 112.094 63.5892 112.094L72.6224 106.374L70.9064 102.146L73.6476 83.9696L75.5924 65.7932Z" fill="#455A64" />
    <path d="M71.8831 206.914C71.7389 206.914 71.5961 206.886 71.4629 206.831C71.3297 206.775 71.2087 206.694 71.1069 206.592C71.0051 206.49 70.9245 206.368 70.8697 206.235C70.8149 206.102 70.787 205.959 70.7876 205.814C70.7876 204.934 70.924 117.071 70.8844 115.65C70.8008 112.622 68.9571 111.25 68.8779 111.175C68.6506 111.002 68.4996 110.747 68.4568 110.465C68.4139 110.182 68.4827 109.894 68.6485 109.661C68.8143 109.429 69.0641 109.27 69.3451 109.218C69.626 109.166 69.9161 109.226 70.154 109.384C70.2684 109.468 72.97 111.421 73.0844 115.588C73.124 117.04 72.9919 202.193 72.9875 205.814C72.9864 206.107 72.8695 206.386 72.6625 206.592C72.4555 206.799 72.1753 206.914 71.8831 206.914Z" fill="#263238" />
    <path d="M65.6393 122.184C65.348 122.181 65.0693 122.064 64.8641 121.857C64.6589 121.65 64.5437 121.371 64.5437 121.079C64.5437 117.814 64.5437 112.856 64.5437 112.565C64.5336 112.422 64.5519 112.278 64.5976 112.142C64.6432 112.006 64.7154 111.881 64.8099 111.773C64.9044 111.665 65.0194 111.576 65.1481 111.513C65.2769 111.45 65.4169 111.413 65.5601 111.404C65.8535 111.388 66.1414 111.488 66.3618 111.682C66.5823 111.876 66.7179 112.149 66.7393 112.442C66.7393 112.49 66.7393 112.644 66.7393 121.084C66.7393 121.375 66.6234 121.655 66.4172 121.861C66.2109 122.068 65.9311 122.184 65.6393 122.184Z" fill="#263238" />
    <path d="M67.3201 106.555L65.1905 108.42C64.6581 108.887 63.9893 113.014 63.9893 113.014C63.9893 113.014 66.3213 115.509 67.3201 115.61C67.9676 115.645 68.6058 115.444 69.1153 115.042C69.1153 115.042 70.1141 115.61 70.7169 115.113C71.3197 114.616 69.8809 111.382 69.8809 111.382C69.8809 111.382 69.3441 109.82 70.8621 109.916L71.5133 111.087L73.1457 113.881C73.1457 113.881 74.1445 113.744 74.3117 113.247C74.4789 112.75 73.8717 111.087 73.8717 111.087C74.0588 110.799 74.1824 110.475 74.234 110.136C74.2856 109.797 74.2641 109.45 74.1709 109.12C73.8057 108.152 73.2073 106.388 71.4429 105.992C69.6785 105.596 67.3201 106.555 67.3201 106.555Z" fill="#F4C3AE" />
    <path d="M69.0365 114.642C69.0057 114.664 68.7373 114.312 68.2445 113.797C67.6 113.134 66.8843 112.544 66.1105 112.037C65.8785 111.877 65.681 111.672 65.5297 111.434C65.3983 111.194 65.3503 110.917 65.3933 110.647C65.4751 110.215 65.6728 109.813 65.9653 109.485C66.1985 109.204 66.4053 108.992 66.5109 108.834C66.6165 108.676 66.6957 108.588 66.7089 108.596C66.5693 108.961 66.3617 109.295 66.0973 109.582C65.8419 109.897 65.6721 110.273 65.6045 110.673C65.5713 110.896 65.6131 111.124 65.7233 111.32C65.8604 111.531 66.0385 111.712 66.2469 111.852C67.0322 112.372 67.744 112.995 68.3633 113.705C68.6346 113.981 68.8617 114.297 69.0365 114.642Z" fill="#CC937F" />
    <path d="M71.9892 109.402C72.0376 109.446 71.7736 109.776 71.6636 110.255C71.5536 110.735 71.6196 111.135 71.558 111.166C71.4964 111.197 71.3028 110.752 71.4392 110.202C71.5756 109.652 71.9496 109.353 71.9892 109.402Z" fill="#CC937F" />
    <path d="M60.0908 97.812C60.2987 97.7951 60.5077 97.7951 60.7156 97.812C60.918 97.812 61.1556 97.812 61.4504 97.812L62.4184 97.9352C62.7792 97.9836 63.1576 98.098 63.5756 98.1904C63.7824 98.2432 63.9848 98.3268 64.2004 98.4016C64.4243 98.4705 64.6433 98.5543 64.856 98.6524C65.8113 99.0753 66.7005 99.634 67.496 100.311C68.284 100.987 69.0086 101.734 69.6608 102.542C70.268 103.277 70.7784 103.963 71.214 104.531C71.6496 105.098 72.006 105.565 72.2568 105.851C72.3972 106.007 72.5238 106.175 72.6352 106.352C72.4739 106.221 72.3265 106.074 72.1952 105.912C71.9224 105.613 71.544 105.169 71.0952 104.592C70.6464 104.016 70.114 103.36 69.5024 102.639C68.85 101.846 68.1317 101.11 67.3552 100.439C66.5797 99.7742 65.7147 99.2218 64.7856 98.7976C64.5796 98.7001 64.3681 98.6149 64.152 98.5424C63.9408 98.4676 63.7428 98.3796 63.5404 98.3224C63.1312 98.2256 62.7616 98.1068 62.4096 98.0452L61.4548 97.8912C61.1732 97.8604 60.9312 97.8516 60.7288 97.834C60.516 97.8497 60.3021 97.8424 60.0908 97.812Z" fill="#263238" />
    <path d="M71.9892 82.2316C71.9733 82.4918 71.9395 82.7505 71.888 83.006C71.8088 83.4988 71.6856 84.2116 71.5272 85.0916C71.184 86.8868 70.7264 89.298 70.2072 91.96C69.688 94.622 69.2964 97.0772 69.0412 98.8504C68.918 99.704 68.8168 100.412 68.742 100.945C68.7182 101.204 68.6755 101.462 68.6144 101.715C68.6068 101.455 68.6201 101.194 68.654 100.936C68.6936 100.434 68.7728 99.7172 68.8784 98.8284C69.094 97.0684 69.4768 94.6044 69.9828 91.916C70.4888 89.2276 70.9991 86.8164 71.3599 85.0608L71.7999 82.9884C71.8422 82.7314 71.9055 82.4783 71.9892 82.2316Z" fill="#263238" />
    <path d="M74.1321 207.715H70.0049L70.7705 204.433H73.2125L74.1321 207.715Z" fill="#455A64" />
</svg>
